<?xml version="1.0" standalone="no"?>
<!DOCTYPE svg PUBLIC "-//W3C//DTD SVG 20010904//EN"
 "http://www.w3.org/TR/2001/REC-SVG-20010904/DTD/svg10.dtd">
<svg version="1.0" xmlns="http://www.w3.org/2000/svg"
 width="1015.000000pt" height="1023.000000pt" viewBox="0 0 1015.000000 1023.000000"
 preserveAspectRatio="xMidYMid meet">
<metadata>
Created by potrace 1.16, written by Peter Selinger 2001-2019
</metadata>
<g transform="translate(0.000000,1023.000000) scale(0.100000,-0.100000)"
fill="#000000" stroke="none">
<path d="M3509 9888 c-135 -207 -277 -541 -324 -763 -10 -44 -19 -134 -22
-200 -10 -233 52 -371 199 -445 79 -39 90 -39 86 2 -3 27 -11 36 -57 59 -30
16 -67 41 -83 56 -45 43 -86 138 -98 225 -31 227 84 619 285 971 28 48 53 87
56 87 21 0 11 -41 -41 -162 -203 -472 -251 -814 -143 -1038 l26 -55 9 41 c11
52 40 80 103 95 28 7 51 14 53 15 5 2 32 465 39 674 6 183 8 198 16 140 6 -36
10 -233 10 -437 l1 -373 31 0 32 0 6 122 c10 186 8 574 -4 689 -5 57 -17 138
-25 179 -16 77 -70 210 -86 210 -5 0 -36 -42 -69 -92z"/>
<path d="M4675 9719 c-117 -34 -205 -222 -205 -437 0 -150 48 -236 159 -286
48 -21 61 -32 61 -49 -1 -158 -35 -421 -101 -777 -12 -64 -22 -161 -23 -220
-1 -91 2 -111 21 -146 79 -148 245 -132 298 27 25 74 15 201 -34 471 -47 254
-71 448 -71 571 0 85 1 87 23 87 47 0 121 30 153 61 51 50 69 114 68 244 -1
90 -7 125 -29 195 -64 198 -188 298 -320 259z m159 -83 c80 -61 131 -169 142
-303 12 -142 -24 -237 -103 -269 -54 -23 -72 -17 -31 11 51 35 73 97 72 205
-1 200 -103 360 -228 360 -72 0 -125 -118 -134 -297 -6 -146 6 -192 69 -255
57 -57 131 -83 216 -76 41 4 50 2 36 -6 -25 -14 -140 -12 -188 4 -59 19 -131
92 -151 153 -36 108 -2 336 64 428 60 83 161 103 236 45z m-66 -878 c7 -112
28 -313 47 -448 39 -274 42 -334 20 -407 -28 -95 -121 -143 -182 -95 -22 17
-22 17 24 17 40 1 50 5 78 38 66 76 69 138 20 487 -28 202 -54 484 -55 593 0
10 7 17 18 17 16 0 19 -19 30 -202z"/>
<path d="M3902 9553 c-17 -60 -36 -135 -42 -167 -13 -76 -13 -200 0 -248 18
-64 69 -120 144 -158 l69 -35 -7 -130 c-8 -160 -25 -286 -72 -520 -47 -234
-56 -392 -26 -452 69 -135 224 -135 293 -1 32 62 27 177 -17 404 -52 269 -73
420 -80 571 l-7 133 37 0 c76 0 154 63 178 143 19 62 14 225 -11 362 -26 146
-29 155 -45 155 -10 0 -14 -45 -19 -182 -7 -182 -23 -297 -42 -301 -18 -4 -23
54 -24 276 l-1 217 -23 0 c-24 0 -24 -1 -30 -162 -7 -161 -27 -302 -47 -322
-7 -7 -14 -6 -22 3 -10 9 -13 74 -13 257 1 243 1 244 -21 244 -20 0 -21 -6
-27 -107 -10 -173 -50 -372 -79 -389 -6 -4 -15 0 -20 7 -13 19 -2 312 16 414
15 87 14 95 -13 95 -15 0 -25 -22 -49 -107z m448 -394 c-23 -119 -92 -182
-198 -180 -105 1 -184 41 -227 115 -36 61 -31 72 12 25 20 -22 55 -50 77 -61
45 -23 135 -34 191 -24 52 10 117 78 134 139 18 62 24 54 11 -14z m-206 -271
c3 -29 6 -87 6 -128 0 -90 22 -291 56 -497 28 -177 31 -287 8 -341 -34 -83
-102 -119 -163 -88 -17 9 -31 18 -31 19 0 1 18 2 39 2 46 0 82 28 112 87 26
50 25 175 -1 338 -38 231 -51 344 -57 503 -5 136 -4 157 9 157 11 0 17 -15 22
-52z"/>
<path d="M5672 9644 c-151 -40 -257 -141 -304 -287 -28 -85 -28 -238 0 -324
56 -175 185 -280 401 -325 176 -37 449 -9 594 61 34 16 62 29 62 28 13 -30 76
-115 105 -141 46 -41 110 -76 141 -76 l22 0 -7 -182 c-4 -101 -9 -184 -11
-186 -2 -2 -55 8 -117 22 -197 44 -343 58 -533 53 -102 -3 -198 -11 -239 -21
-38 -9 -72 -14 -74 -11 -3 3 -7 86 -10 184 l-5 179 -34 4 c-23 3 -37 0 -40 -9
-7 -18 4 -448 13 -490 l6 -32 47 18 c110 44 198 56 391 55 145 0 213 -5 315
-23 181 -32 459 -113 515 -151 13 -9 12 -13 -8 -30 -30 -25 -100 -46 -222 -67
-135 -23 -516 -23 -655 0 -200 35 -279 77 -232 126 10 11 6 12 -23 6 -50 -9
-124 -48 -128 -67 -7 -38 92 -82 243 -107 360 -60 992 -29 1139 57 31 18 31
18 37 128 3 60 12 219 19 354 l13 245 52 1 c224 6 358 362 216 574 -63 94
-198 143 -340 123 l-70 -9 -30 46 c-59 90 -148 130 -290 130 -102 0 -194 -29
-270 -83 l-48 -35 -41 57 c-68 97 -181 170 -317 206 -73 19 -212 19 -283 -1z
m258 -120 c126 -28 235 -113 296 -228 16 -31 33 -56 38 -56 4 0 31 21 59 46
85 76 162 106 277 106 145 0 230 -76 209 -187 -14 -76 -73 -188 -122 -230 -44
-38 -134 -70 -167 -60 -33 11 -23 -4 26 -35 64 -40 136 -55 192 -41 55 15 120
73 145 131 25 55 26 159 3 215 -9 21 -14 40 -11 43 11 11 193 14 233 3 91 -25
152 -118 143 -218 -1 -7 -17 -31 -37 -53 -46 -50 -125 -81 -216 -83 -38 -1
-68 -3 -68 -5 0 -6 108 -50 163 -66 63 -18 65 -28 11 -46 -49 -17 -92 -6 -165
41 l-63 41 -15 -23 c-34 -53 -97 -107 -138 -118 -94 -25 -199 39 -263 161 -18
35 -34 64 -35 66 -1 1 -44 -18 -96 -42 -140 -66 -247 -90 -399 -89 -108 0
-136 4 -207 27 -111 36 -197 101 -235 176 -75 149 -46 365 61 449 106 83 234
109 381 75z m1076 -958 c-21 -349 -29 -461 -32 -465 -2 -2 -16 2 -32 8 -33 14
-42 50 -42 170 0 111 30 374 46 399 14 21 15 21 40 5 26 -17 26 -17 20 -117z"/>
<path d="M1562 9634 c3 -3 55 -22 115 -43 202 -69 300 -149 327 -266 l7 -30
-19 30 c-85 136 -347 238 -701 274 -201 21 -410 7 -508 -34 -145 -61 -197
-201 -125 -341 17 -34 43 -76 58 -93 l27 -33 -16 -151 c-49 -445 -42 -731 21
-854 42 -81 56 -88 287 -132 244 -47 349 -65 499 -86 115 -16 263 -20 282 -7
57 37 90 303 82 667 -5 222 1 229 27 31 25 -186 31 -481 12 -591 -9 -49 -14
-91 -12 -94 6 -6 184 15 334 40 208 34 325 80 355 137 24 47 39 252 32 442 -5
157 -22 359 -29 366 -2 2 -33 -1 -71 -7 -37 -6 -136 -9 -219 -7 -131 3 -157 6
-192 24 l-39 22 139 0 c139 -1 214 9 310 39 60 18 67 24 56 42 -7 11 -27 12
-117 2 -135 -14 -364 -14 -399 -1 -21 8 -25 13 -16 24 7 8 49 15 123 20 192
11 330 50 447 126 66 42 85 83 79 172 -15 202 -159 276 -603 308 -148 10 -562
14 -553 4z m533 -113 c0 -8 -8 -19 -17 -25 -14 -8 -21 -7 -34 6 -9 9 -13 21
-9 28 10 15 60 8 60 -9z m175 -15 c0 -8 -5 -18 -10 -21 -13 -8 -42 14 -34 26
9 15 44 10 44 -5z m126 3 c9 -16 -18 -30 -33 -17 -7 6 -10 14 -7 19 7 13 31
11 40 -2z m-1231 -50 c316 -24 561 -88 663 -174 59 -49 65 -176 12 -233 -12
-12 -41 -28 -66 -34 -53 -15 -50 14 -29 -342 18 -289 23 -645 11 -665 -12 -18
-153 -10 -438 24 -301 36 -471 63 -480 78 -57 87 -63 511 -12 926 l15 123 -45
47 c-56 61 -76 100 -76 149 0 61 41 87 160 102 96 11 131 11 285 -1z m1052
-65 c8 -21 -13 -42 -28 -27 -13 13 -5 43 11 43 6 0 13 -7 17 -16z m211 -1 c-5
-25 -28 -28 -28 -4 0 12 6 21 16 21 9 0 14 -7 12 -17z m188 -4 c10 -17 -13
-36 -27 -22 -12 12 -4 33 11 33 5 0 12 -5 16 -11z m-486 -39 c0 -5 -4 -10 -10
-10 -5 0 -10 5 -10 10 0 6 5 10 10 10 6 0 10 -4 10 -10z m450 -101 c0 -16 -31
-22 -43 -10 -9 9 -9 14 2 20 16 10 41 4 41 -10z m-335 -18 c16 -51 -50 -83
-69 -34 -12 29 4 53 34 53 19 0 31 -6 35 -19z m173 10 c21 -13 10 -46 -16 -49
-24 -4 -38 18 -28 43 6 17 24 19 44 6z"/>
<path d="M890 9320 c-13 -9 -12 -12 4 -25 11 -8 23 -15 26 -15 3 0 15 7 26 15
16 13 17 16 4 25 -8 5 -22 10 -30 10 -8 0 -22 -5 -30 -10z"/>
<path d="M1420 9251 c0 -16 6 -21 26 -21 33 0 30 33 -4 38 -17 3 -22 -2 -22
-17z"/>
<path d="M1252 9228 c-16 -16 -15 -33 4 -52 23 -24 56 -3 52 32 -3 30 -35 41
-56 20z"/>
<path d="M990 9205 c-7 -8 -12 -26 -12 -40 0 -36 20 -55 58 -55 35 0 54 20 54
59 0 44 -72 70 -100 36z"/>
<path d="M1643 9184 c-3 -8 2 -23 11 -32 15 -15 17 -15 32 0 21 21 11 48 -16
48 -11 0 -23 -7 -27 -16z"/>
<path d="M1582 9038 c-28 -28 -3 -84 34 -76 28 5 40 33 26 62 -12 28 -40 34
-60 14z"/>
<path d="M940 8950 c-24 -24 -24 -29 -4 -58 28 -40 114 -24 114 23 0 52 -70
75 -110 35z"/>
<path d="M1380 8915 c-18 -22 5 -45 45 -45 40 0 63 23 45 45 -7 8 -27 15 -45
15 -18 0 -38 -7 -45 -15z"/>
<path d="M1177 8874 c-4 -4 -7 -16 -7 -26 0 -13 7 -18 26 -18 21 0 25 4 22 22
-3 23 -27 35 -41 22z"/>
<path d="M1607 8773 c-13 -13 -7 -51 10 -57 23 -9 47 17 38 43 -6 20 -34 28
-48 14z"/>
<path d="M1030 8730 c-28 -28 -11 -63 27 -58 38 4 52 32 29 57 -24 26 -31 26
-56 1z"/>
<path d="M1362 8678 c-29 -29 10 -68 48 -48 32 17 18 60 -20 60 -9 0 -21 -5
-28 -12z"/>
<path d="M920 8545 c-17 -21 -8 -50 17 -53 26 -4 41 31 23 53 -16 19 -24 19
-40 0z"/>
<path d="M1575 8455 c-46 -45 -19 -115 43 -115 62 0 85 80 36 119 -34 27 -50
26 -79 -4z"/>
<path d="M1008 8399 c-10 -5 -18 -19 -18 -30 0 -35 71 -46 84 -13 6 16 -3 44
-14 44 -5 0 -14 2 -22 5 -7 2 -21 0 -30 -6z"/>
<path d="M1387 8375 c-19 -19 -12 -42 15 -51 29 -9 57 20 42 44 -15 23 -38 26
-57 7z"/>
<path d="M1554 8216 c-9 -39 4 -66 32 -66 30 0 50 41 34 71 -16 28 -58 25 -66
-5z"/>
<path d="M1277 8177 c-8 -21 8 -39 29 -35 11 2 20 13 22 26 3 18 -1 22 -21 22
-14 0 -27 -6 -30 -13z"/>
<path d="M9165 9523 c-44 -23 -110 -88 -170 -168 -29 -38 -132 -152 -230 -253
-98 -100 -186 -194 -197 -207 l-19 -25 44 0 c45 0 46 1 145 113 115 128 294
307 309 307 9 0 53 -14 111 -35 11 -4 9 -13 -7 -39 -12 -18 -21 -50 -21 -71
l0 -38 46 7 45 6 -2 -45 c-2 -24 0 -47 4 -51 10 -10 97 26 97 39 -1 7 -7 23
-15 37 -22 38 -18 56 16 71 28 11 40 10 100 -11 87 -31 89 -46 12 -93 -134
-81 -409 -172 -854 -282 l-106 -27 -12 -96 c-23 -185 -66 -301 -146 -390 -25
-27 -45 -53 -45 -58 0 -4 -14 -20 -32 -34 l-32 -27 37 -33 37 -32 -45 -29
c-25 -16 -45 -32 -45 -36 0 -9 83 -63 97 -63 5 0 19 21 31 46 16 33 27 44 38
40 54 -21 64 -19 66 10 1 16 1 44 -1 62 l-2 33 43 -4 c35 -3 43 -8 49 -30 21
-79 110 -141 200 -142 67 0 76 6 63 42 -8 25 -14 27 -51 25 -23 -2 -54 3 -71
12 -29 15 -82 70 -82 85 0 4 35 15 78 24 50 11 125 40 212 83 197 96 290 134
330 134 49 -1 185 -34 213 -53 13 -8 29 -29 35 -46 7 -17 17 -45 23 -61 7 -19
18 -29 27 -28 19 3 46 -46 38 -68 -3 -7 -30 -30 -60 -49 -31 -19 -60 -45 -67
-56 -6 -11 -27 -38 -46 -60 -56 -62 -109 -73 -317 -64 -129 5 -203 3 -301 -9
-164 -20 -228 -20 -335 0 -47 8 -126 16 -177 18 -101 3 -117 10 -140 63 -18
44 -16 82 6 125 18 37 18 37 -4 58 -21 19 -22 19 -38 3 -42 -47 -51 -162 -17
-228 11 -21 18 -41 15 -43 -10 -11 -151 20 -199 43 -28 13 -78 47 -111 74 -34
27 -88 65 -120 83 l-60 34 -3 79 c-6 166 5 177 188 186 69 3 222 21 341 39
l216 33 22 44 c18 38 19 44 5 50 -27 10 -114 -5 -244 -43 -111 -32 -143 -37
-285 -43 -183 -8 -195 -12 -281 -94 -29 -29 -71 -64 -93 -79 -50 -34 -78 -88
-91 -175 -23 -159 -8 -231 61 -307 126 -138 391 -205 893 -226 373 -15 816 9
1037 55 177 37 330 110 390 186 42 53 60 107 66 199 5 80 7 74 -64 194 -25 42
-43 59 -84 80 -29 14 -61 26 -71 26 -11 0 -39 22 -64 49 -50 54 -112 86 -208
106 -54 11 -65 10 -96 -5 -60 -30 -467 -190 -499 -196 -27 -6 -31 -4 -31 16 0
12 -16 58 -36 101 -37 83 -45 142 -31 230 l8 45 122 23 c205 39 1015 245 1033
264 3 3 6 72 7 154 3 206 -6 219 -188 283 -49 17 -121 49 -159 71 -70 40 -171
79 -203 79 -10 -1 -31 -8 -48 -17z m205 -119 c84 -43 230 -104 249 -104 2 0
-13 -18 -32 -39 -19 -22 -40 -49 -47 -60 l-11 -21 -40 20 c-54 28 -214 90
-321 125 l-87 28 21 29 c11 16 39 43 61 59 52 37 68 34 207 -37z m-864 -986
c-4 -191 -7 -198 -74 -198 -29 0 -33 3 -27 18 4 9 18 53 32 97 21 69 32 115
58 233 12 52 15 12 11 -150z"/>
<path d="M9010 9093 c0 -5 -13 -23 -29 -42 l-28 -34 -27 18 c-32 21 -39 15
-55 -43 -10 -35 -5 -62 13 -74 19 -13 105 -9 142 7 l36 15 -23 19 -23 19 42
21 c23 12 42 25 42 30 0 8 -74 71 -84 71 -3 0 -6 -3 -6 -7z"/>
<path d="M3530 8719 c-75 -21 -97 -84 -64 -182 l16 -47 97 0 98 0 6 83 c4 45
7 99 7 120 l0 37 -62 -1 c-35 0 -79 -5 -98 -10z m54 -75 c22 -21 20 -40 -6
-58 -15 -11 -26 -12 -40 -5 -23 12 -24 55 0 68 23 14 28 14 46 -5z"/>
<path d="M3480 8393 c-20 -118 -60 -397 -60 -425 l0 -28 137 0 136 0 -6 158
c-4 86 -7 203 -7 260 l0 102 -94 0 -94 0 -12 -67z"/>
<path d="M9252 8268 c-18 -20 -19 -25 -6 -42 18 -26 18 -109 -1 -146 -8 -16
-24 -35 -35 -43 -18 -13 -19 -18 -9 -41 7 -14 18 -26 25 -26 21 0 84 82 95
124 14 51 6 127 -18 166 -21 36 -24 36 -51 8z"/>
<path d="M7860 8232 c-19 -26 -35 -49 -36 -51 -2 -2 -15 6 -30 18 -15 11 -30
21 -33 21 -14 0 -41 -71 -41 -105 0 -24 6 -38 19 -45 29 -15 101 -12 156 7
l49 16 -29 23 -28 22 38 16 c76 32 77 39 5 96 l-37 29 -33 -47z"/>
<path d="M8903 8197 c-49 -9 -93 -54 -93 -95 0 -49 54 -112 95 -112 2 0 10 18
16 40 7 22 14 40 16 40 2 0 19 -11 37 -25 18 -14 38 -25 44 -25 13 0 21 27 25
75 2 25 -2 30 -23 33 -61 7 -69 11 -72 45 l-3 33 -42 -9z"/>
<path d="M3423 7850 c6 -74 26 -106 80 -131 42 -19 141 -26 164 -11 19 12 33
60 33 117 0 88 6 85 -147 85 l-136 0 6 -60z m161 -6 c21 -21 20 -37 -3 -58
-15 -14 -24 -15 -40 -6 -26 13 -28 55 -3 69 23 14 28 14 46 -5z"/>
<path d="M5745 7588 c3 -13 28 -129 55 -258 95 -451 107 -502 121 -511 24 -15
79 -11 79 6 0 14 -124 714 -135 763 -5 20 -11 22 -65 22 -58 0 -60 -1 -55 -22z"/>
<path d="M6258 7537 c-70 -34 -127 -68 -127 -74 -1 -7 -5 -13 -9 -13 -4 0 -15
-13 -24 -28 -15 -24 -18 -74 -24 -320 l-7 -292 40 0 40 0 6 260 c9 330 3 317
162 397 61 30 112 57 113 58 8 8 -20 75 -31 74 -7 0 -69 -28 -139 -62z"/>
<path d="M1938 7527 c-95 -114 -105 -187 -53 -367 45 -155 55 -274 31 -368 -9
-35 -16 -66 -16 -68 0 -10 45 21 87 59 58 53 73 84 73 149 0 46 -10 72 -72
197 l-73 144 0 87 c0 78 3 93 32 148 17 34 31 62 29 62 -1 0 -18 -19 -38 -43z"/>
<path d="M1026 7518 c-89 -103 -100 -192 -47 -363 54 -169 59 -274 22 -402 -5
-18 -7 -33 -3 -33 23 0 122 94 142 135 33 67 23 110 -62 282 -71 142 -72 148
-73 222 0 66 4 86 31 139 17 34 29 62 28 62 -1 0 -19 -19 -38 -42z"/>
<path d="M1267 7508 c-34 -52 -35 -103 -6 -207 16 -57 20 -94 17 -148 -3 -40
-2 -73 1 -73 10 1 46 34 64 60 26 37 21 67 -28 165 -49 99 -57 153 -29 206 23
46 12 44 -19 -3z"/>
<path d="M1534 7511 c-36 -55 -40 -103 -16 -192 30 -110 34 -142 22 -194 -6
-26 -8 -50 -6 -53 3 -3 24 13 46 35 53 54 53 87 0 193 -52 103 -58 144 -32
204 25 56 21 59 -14 7z"/>
<path d="M3845 7183 c-189 -15 -344 -39 -362 -57 -14 -13 -23 -98 -17 -153 6
-56 9 -63 28 -63 60 0 100 -23 175 -99 85 -86 106 -96 246 -112 157 -17 260
10 406 108 41 28 92 59 114 71 57 29 155 46 230 40 36 -3 65 -3 65 1 0 19 -68
120 -106 157 -62 60 -132 91 -234 104 -76 9 -444 12 -545 3z m510 -71 c114
-24 184 -55 221 -94 20 -21 23 -29 11 -25 -166 59 -408 -3 -536 -137 -30 -31
-32 -36 -15 -36 28 0 180 43 244 69 l55 23 -25 -27 c-40 -42 -156 -94 -242
-107 -142 -21 -294 19 -376 100 -31 29 -68 53 -107 67 -67 25 -75 40 -55 101
15 45 45 58 165 73 50 6 104 13 120 15 17 3 125 3 240 1 159 -3 232 -8 300
-23z"/>
<path d="M6520 7154 c-30 -8 -73 -25 -95 -38 -46 -28 -126 -105 -146 -142 -12
-24 -11 -27 11 -45 l25 -19 25 33 c129 168 330 205 504 93 64 -42 88 -68 119
-131 40 -80 45 -172 12 -257 -5 -12 1 -18 26 -23 39 -9 45 -1 59 85 47 280
-247 523 -540 444z"/>
<path d="M6605 7048 c-8 -20 29 -114 43 -110 7 1 12 -2 12 -8 0 -5 -4 -10 -9
-10 -5 0 -7 -9 -4 -20 3 -11 13 -20 22 -20 13 0 13 -2 2 -9 -8 -5 -10 -14 -6
-21 5 -8 3 -11 -6 -8 -7 2 -33 49 -56 103 -24 54 -45 101 -48 103 -12 12 -98
-33 -135 -70 -51 -51 -66 -77 -48 -82 136 -43 215 -70 221 -76 20 -18 -220
-43 -408 -43 -342 1 -563 58 -504 129 11 13 9 14 -17 8 -16 -3 -48 -15 -71
-24 -51 -22 -58 -42 -51 -143 12 -175 126 -350 262 -402 35 -14 45 -24 65 -71
30 -69 87 -134 145 -165 38 -20 49 -32 61 -69 26 -82 39 -213 38 -395 -1 -168
-8 -229 -38 -322 -10 -30 26 -47 101 -46 72 1 108 16 101 44 -6 24 -8 24 44
-5 l43 -25 -29 -12 c-46 -18 -202 -23 -269 -9 -69 14 -116 51 -96 75 17 21 1
19 -37 -5 -65 -39 -29 -86 88 -115 88 -22 288 -17 358 9 48 18 81 21 81 8 0
-11 -58 -28 -140 -41 -160 -26 -360 -2 -441 52 -44 30 -48 58 -12 87 28 22 28
22 3 15 -39 -12 -83 -35 -107 -58 -65 -59 13 -128 192 -168 90 -20 370 -18
468 4 95 20 163 53 191 90 19 26 19 30 5 55 -8 15 -33 37 -56 50 -52 28 -182
62 -242 62 -79 0 -76 -10 -76 257 0 225 6 284 35 392 8 32 18 41 61 62 63 29
144 116 166 180 15 42 22 49 71 69 98 41 217 193 238 306 3 19 10 37 15 39 4
3 33 -7 63 -22 31 -15 59 -23 63 -19 9 9 17 160 10 180 -5 12 -14 12 -64 0
-72 -17 -73 -17 -73 0 0 9 20 19 55 27 31 7 55 18 55 25 0 14 -64 93 -90 111
-17 12 -22 7 -50 -42 -17 -30 -35 -55 -39 -55 -20 0 -18 17 9 71 l30 58 -38
11 c-20 6 -63 14 -94 17 -45 4 -59 3 -63 -9z m-50 -38 c3 -5 1 -10 -4 -10 -6
0 -11 5 -11 10 0 6 2 10 4 10 3 0 8 -4 11 -10z m85 0 c0 -5 -2 -10 -4 -10 -3
0 -8 5 -11 10 -3 6 -1 10 4 10 6 0 11 -4 11 -10z m99 -40 c0 -10 -3 -8 -9 5
-12 27 -12 43 0 25 5 -8 9 -22 9 -30z m-44 20 c3 -5 1 -10 -4 -10 -6 0 -11 5
-11 10 0 6 2 10 4 10 3 0 8 -4 11 -10z m-185 -10 c0 -5 -2 -10 -4 -10 -3 0 -8
5 -11 10 -3 6 -1 10 4 10 6 0 11 -4 11 -10z m25 0 c3 -5 1 -10 -4 -10 -6 0
-11 5 -11 10 0 6 2 10 4 10 3 0 8 -4 11 -10z m-60 -18 c-3 -3 -11 0 -18 7 -9
10 -8 11 6 5 10 -3 15 -9 12 -12z m245 -2 c0 -5 -5 -10 -11 -10 -5 0 -7 5 -4
10 3 6 8 10 11 10 2 0 4 -4 4 -10z m-140 -10 c0 -5 -2 -10 -4 -10 -3 0 -8 5
-11 10 -3 6 -1 10 4 10 6 0 11 -4 11 -10z m-135 -10 c3 -5 2 -10 -4 -10 -5 0
-13 5 -16 10 -3 6 -2 10 4 10 5 0 13 -4 16 -10z m55 0 c0 -5 -4 -10 -9 -10 -6
0 -13 5 -16 10 -3 6 1 10 9 10 9 0 16 -4 16 -10z m40 0 c0 -5 -2 -10 -4 -10
-3 0 -8 5 -11 10 -3 6 -1 10 4 10 6 0 11 -4 11 -10z m45 -20 c3 -5 1 -10 -4
-10 -6 0 -11 5 -11 10 0 6 2 10 4 10 3 0 8 -4 11 -10z m-145 -20 c0 -5 -2 -10
-4 -10 -3 0 -8 5 -11 10 -3 6 -1 10 4 10 6 0 11 -4 11 -10z m45 -8 c-3 -3 -11
0 -18 7 -9 10 -8 11 6 5 10 -3 15 -9 12 -12z m40 8 c3 -5 2 -10 -4 -10 -5 0
-13 5 -16 10 -3 6 -2 10 4 10 5 0 13 -4 16 -10z m35 0 c0 -5 -2 -10 -4 -10 -3
0 -8 5 -11 10 -3 6 -1 10 4 10 6 0 11 -4 11 -10z m45 -20 c3 -5 2 -10 -4 -10
-5 0 -13 5 -16 10 -3 6 -2 10 4 10 5 0 13 -4 16 -10z m-80 -10 c3 -5 2 -10 -4
-10 -5 0 -13 5 -16 10 -3 6 -2 10 4 10 5 0 13 -4 16 -10z m325 6 c0 -3 -4 -8
-10 -11 -5 -3 -10 -1 -10 4 0 6 5 11 10 11 6 0 10 -2 10 -4z m-260 -26 c0 -5
-2 -10 -4 -10 -3 0 -8 5 -11 10 -3 6 -1 10 4 10 6 0 11 -4 11 -10z m347 -46
c-3 -3 -12 -4 -19 -1 -8 3 -5 6 6 6 11 1 17 -2 13 -5z m-47 -14 c0 -5 -4 -10
-10 -10 -5 0 -10 5 -10 10 0 6 5 10 10 10 6 0 10 -4 10 -10z m-1225 -16 c18
-4 24 -15 29 -49 14 -89 140 -247 221 -276 31 -12 33 -15 37 -74 3 -36 16 -83
31 -115 14 -30 24 -56 22 -58 -11 -11 -78 105 -99 171 -6 18 -12 21 -56 31
-80 17 -172 119 -216 240 -29 80 -33 152 -8 142 9 -3 26 -9 39 -12z m1093 -51
c-24 -152 -139 -303 -244 -320 -30 -5 -39 -12 -50 -42 -28 -72 -60 -123 -93
-153 -45 -39 -128 -78 -166 -77 -28 0 -26 2 23 26 66 32 145 117 169 183 18
47 24 52 88 84 114 54 179 139 214 279 13 50 24 73 37 78 29 10 32 4 22 -58z
m97 47 c3 -5 1 -10 -4 -10 -6 0 -11 5 -11 10 0 6 2 10 4 10 3 0 8 -4 11 -10z
m92 4 c-3 -3 -12 -4 -19 -1 -8 3 -5 6 6 6 11 1 17 -2 13 -5z m-22 -34 c13 -5
14 -9 5 -9 -8 0 -24 4 -35 9 -13 5 -14 9 -5 9 8 0 24 -4 35 -9z m-420 -47 c-7
-52 -42 -137 -76 -184 -12 -17 -44 -49 -73 -71 -28 -22 -56 -50 -63 -62 -12
-20 -12 -20 -13 6 0 20 14 40 54 78 63 60 91 118 101 213 l7 67 35 0 35 0 -7
-47z m-379 -70 c-3 -60 -9 -151 -13 -203 l-7 -95 -18 70 c-11 41 -21 125 -25
203 l-6 132 38 0 38 0 -7 -107z m741 101 c-3 -3 -12 -4 -19 -1 -8 3 -5 6 6 6
11 1 17 -2 13 -5z m50 -20 c-3 -3 -12 -4 -19 -1 -8 3 -5 6 6 6 11 1 17 -2 13
-5z"/>
<path d="M1392 6894 c-43 -26 -82 -84 -82 -124 0 -17 6 -20 50 -20 l50 0 0
-40 c0 -43 10 -38 -105 -55 -115 -18 -281 -86 -357 -146 -30 -23 -47 -29 -87
-29 l-51 0 0 -45 0 -45 670 0 670 0 0 45 0 45 -39 0 c-29 0 -55 11 -103 43
-107 72 -224 114 -401 142 -37 6 -38 7 -35 43 3 37 4 37 51 40 40 3 47 6 47
24 0 36 -43 99 -86 124 -57 34 -134 33 -192 -2z m193 -263 c30 -5 7 -9 -95
-13 -173 -7 -253 -31 -349 -105 -39 -29 -51 -33 -105 -33 -57 1 -60 2 -41 16
30 24 133 74 195 96 116 41 293 59 395 39z m179 -48 c85 -21 196 -80 196 -104
0 -5 -29 -9 -63 -9 -52 0 -67 4 -83 21 -44 49 -187 97 -294 100 -35 0 -41 2
-25 10 27 12 196 1 269 -18z m-423 -23 c-23 -17 -47 -42 -53 -55 -10 -23 -17
-25 -77 -25 l-66 0 25 21 c37 29 79 50 140 70 76 25 79 23 31 -11z"/>
<path d="M3470 6702 c0 -102 3 -127 25 -182 14 -34 37 -111 52 -169 25 -95 28
-123 28 -276 0 -153 -2 -177 -23 -235 -13 -36 -37 -86 -53 -111 -28 -44 -29
-51 -29 -163 0 -116 0 -117 26 -126 15 -6 209 -10 480 -10 l454 0 0 -25 0 -25
-440 0 -440 0 0 -25 c0 -48 27 -95 64 -110 53 -22 933 -22 976 0 45 23 60 53
60 117 0 66 -3 63 110 71 95 7 170 39 240 104 67 61 102 127 119 217 14 75 14
520 1 605 -13 75 -47 146 -97 201 -28 32 -42 40 -70 40 l-35 0 44 -33 c50 -37
93 -115 108 -196 13 -72 13 -532 -1 -606 -19 -101 -63 -170 -142 -219 -24 -14
-163 -56 -189 -56 -4 0 -8 17 -8 38 l0 37 84 16 c200 39 245 130 245 489 0
251 -20 349 -85 414 -36 36 -95 63 -154 71 -99 14 -90 0 -90 140 l0 125 -111
0 c-110 0 -112 0 -170 -35 -202 -123 -397 -167 -597 -135 -111 18 -170 47
-231 111 -52 56 -57 59 -103 59 l-48 0 0 -118z m137 9 c16 -22 40 -111 53
-201 15 -100 24 -637 12 -775 -8 -104 -8 -111 12 -133 12 -13 39 -33 61 -45
59 -30 177 -26 271 10 11 4 14 -5 14 -41 l0 -46 -245 0 -245 0 0 95 c0 81 4
103 24 143 49 96 68 180 73 317 6 157 -11 284 -62 457 -24 82 -35 137 -35 183
l0 65 28 -6 c15 -4 32 -14 39 -23z m400 -150 c44 -21 68 -49 83 -100 9 -34 -5
-44 -15 -11 -8 27 -55 50 -101 50 -28 0 -44 -8 -70 -34 l-34 -34 0 -326 0
-326 28 -31 c21 -24 38 -32 75 -36 43 -5 49 -3 83 31 20 20 37 36 39 36 11 0
-20 -90 -38 -109 -69 -74 -177 -64 -241 22 -20 27 -21 41 -24 377 -2 227 1
363 8 389 27 101 114 144 207 102z m422 -9 c37 -27 60 -63 67 -102 l6 -35 -21
32 c-25 40 -49 53 -98 53 -47 0 -81 -22 -99 -66 -21 -51 -20 -613 1 -658 38
-81 148 -88 196 -14 l21 33 -5 -41 c-6 -55 -31 -91 -80 -116 -50 -25 -111 -21
-157 12 -58 42 -60 53 -60 451 0 352 1 362 22 400 41 74 142 98 207 51z m382
-181 l29 -29 0 -282 0 -282 -30 -29 c-24 -25 -37 -30 -67 -27 -34 3 -40 8 -65
58 -42 82 -62 202 -55 335 5 96 30 255 43 277 3 5 30 8 60 8 48 0 60 -4 85
-29z m129 -89 c14 -50 13 -390 -1 -431 -6 -17 -20 -36 -30 -42 -18 -9 -19 -2
-19 261 0 266 0 271 20 260 10 -6 24 -27 30 -48z"/>
<path d="M2976 6659 c-21 -30 -16 -33 33 -18 45 13 50 32 9 37 -18 2 -31 -4
-42 -19z"/>
<path d="M3070 6639 c-25 -10 -245 -98 -490 -195 -245 -97 -451 -178 -458
-181 -9 -4 -10 1 -2 22 5 14 10 31 10 36 0 5 -255 9 -655 9 -367 0 -655 -4
-655 -9 0 -5 7 -28 16 -52 31 -83 23 -183 -30 -399 -59 -240 -64 -313 -24
-380 25 -43 96 -117 144 -150 14 -10 23 -31 28 -62 l7 -48 514 0 514 0 7 48
c5 31 14 52 28 62 81 56 155 150 170 214 10 39 -9 152 -55 339 -21 87 -41 181
-45 208 l-7 49 49 21 c47 19 49 20 59 3 21 -39 64 -74 89 -74 14 0 70 23 123
51 139 73 239 110 475 173 290 78 348 111 335 192 -6 33 -81 145 -96 143 -3 0
-26 -9 -51 -20z m-1098 -491 c4 -63 19 -145 48 -253 37 -142 41 -170 38 -250
-3 -72 -9 -102 -29 -146 -35 -74 -94 -139 -126 -139 l-25 0 31 39 c17 22 44
66 59 98 24 51 27 70 27 153 -1 80 -7 116 -39 225 -21 72 -41 157 -44 189 -4
33 -12 61 -19 64 -22 7 -15 -58 22 -193 45 -162 59 -255 51 -325 -13 -111
-101 -250 -158 -250 l-30 0 31 35 c74 84 106 198 90 315 -5 36 -23 112 -40
170 -16 58 -35 138 -42 178 l-12 72 -251 0 -251 0 -6 -67 c-3 -38 -19 -122
-35 -188 -17 -66 -33 -141 -37 -167 -13 -94 30 -228 101 -315 l27 -33 -26 0
c-34 0 -91 65 -131 149 -29 61 -31 73 -30 171 0 81 7 133 31 230 17 69 34 146
38 173 6 45 5 47 -18 47 -22 0 -25 -5 -30 -60 -4 -33 -21 -115 -39 -182 -44
-170 -46 -296 -5 -382 15 -33 43 -79 63 -103 l35 -43 -109 0 -110 0 -46 51
c-118 131 -128 225 -52 464 50 156 63 254 43 333 l-9 32 505 0 504 0 5 -92z"/>
<path d="M9310 6561 c-30 -10 -109 -42 -175 -71 -154 -67 -318 -123 -447 -152
-88 -20 -131 -23 -298 -23 -212 0 -263 7 -575 82 -161 38 -265 46 -326 25 -55
-19 -107 -77 -148 -161 -34 -71 -36 -82 -36 -171 0 -89 2 -99 35 -159 23 -44
53 -79 91 -110 53 -42 58 -50 58 -87 3 -134 59 -272 144 -352 136 -128 329
-172 745 -172 399 0 767 51 920 128 108 53 203 188 238 338 22 97 15 248 -16
329 -29 77 -99 147 -167 168 l-48 15 40 1 c117 3 200 -64 250 -200 l22 -63 31
65 c17 35 39 104 48 152 15 75 16 100 6 163 -21 131 -86 227 -178 258 -62 21
-145 20 -214 -3z m177 -82 c23 -11 61 -41 82 -66 52 -58 73 -122 69 -210 l-3
-68 -14 45 c-30 102 -91 184 -161 215 -38 17 -40 20 -40 62 0 50 6 52 67 22z
m-179 -83 c8 -65 -116 -221 -194 -244 -59 -17 -89 -15 -197 13 -53 14 -103 22
-111 19 -9 -3 -31 -31 -50 -63 -41 -66 -99 -125 -139 -140 -72 -27 -132 -7
-232 79 -33 29 -70 57 -82 62 -25 12 -42 3 -130 -68 -44 -36 -103 -64 -136
-64 -4 0 -28 10 -53 21 -32 15 -66 47 -115 105 -38 45 -78 85 -88 89 -25 8
-65 -13 -114 -59 -84 -79 -149 -12 -71 74 55 61 121 100 167 100 53 0 92 -26
156 -104 63 -78 106 -116 131 -116 11 0 46 22 79 50 145 120 172 119 329 -15
97 -83 133 -75 214 44 31 47 67 90 80 97 33 19 98 17 180 -6 145 -40 196 -22
259 95 21 38 46 72 56 76 26 10 57 -14 61 -45z m-1880 -113 c-22 -81 13 -244
63 -289 17 -15 17 -19 4 -45 -8 -15 -15 -35 -15 -44 0 -21 -7 -19 -36 13 -92
100 -104 263 -28 380 21 31 24 28 12 -15z m1729 -304 c37 -14 83 -58 83 -81 0
-10 -4 -18 -10 -18 -19 0 -10 -39 10 -45 11 -4 20 -16 21 -28 7 -154 -74 -270
-249 -360 -165 -84 -334 -124 -567 -134 -410 -16 -741 100 -850 298 -26 48
-30 66 -33 155 -4 86 -1 108 16 148 37 81 95 85 342 18 201 -55 369 -82 500
-82 122 0 193 14 374 71 211 67 302 81 363 58z"/>
<path d="M7775 5901 c-11 -18 5 -31 36 -31 24 0 30 4 27 18 -4 19 -52 29 -63
13z"/>
<path d="M7957 5854 c-12 -12 4 -24 34 -24 19 0 29 5 29 15 0 15 -50 22 -63 9z"/>
<path d="M9030 5835 c-17 -21 -3 -35 36 -35 23 0 37 6 41 16 12 31 -53 47 -77
19z"/>
<path d="M7775 5810 c-4 -7 -3 -16 3 -22 14 -14 45 -2 40 15 -6 16 -34 21 -43
7z"/>
<path d="M8637 5794 c-10 -11 3 -24 24 -24 10 0 19 7 19 15 0 15 -31 21 -43 9z"/>
<path d="M8775 5781 c-8 -14 32 -33 55 -26 11 4 20 13 20 21 0 16 -65 20 -75
5z"/>
<path d="M8262 5748 c-27 -27 40 -52 77 -29 12 8 12 12 2 25 -16 19 -62 21
-79 4z"/>
<path d="M8004 5739 c-3 -6 -1 -15 6 -19 17 -11 50 0 50 16 0 17 -46 19 -56 3z"/>
<path d="M8553 5698 c2 -7 12 -13 22 -13 10 0 20 6 23 13 2 7 -6 12 -23 12
-17 0 -25 -5 -22 -12z"/>
<path d="M9175 5699 c-8 -12 -5 -16 15 -19 29 -4 40 0 40 15 0 17 -45 21 -55
4z"/>
<path d="M8990 5680 c0 -15 7 -20 25 -20 18 0 25 5 25 20 0 15 -7 20 -25 20
-18 0 -25 -5 -25 -20z"/>
<path d="M2227 6362 c-16 -17 -23 -42 -12 -42 18 0 85 34 78 40 -20 19 -50 20
-66 2z"/>
<path d="M4106 4893 c-68 -108 -67 -143 2 -237 34 -47 37 -55 37 -121 l0 -70
-122 -3 -123 -3 0 25 c0 14 -12 62 -27 108 -28 88 -37 207 -20 278 l9 35 -27
-35 c-80 -105 -84 -162 -20 -270 29 -48 45 -86 45 -107 l0 -33 -65 0 c-149 0
-388 -40 -439 -74 -34 -22 -49 -94 -49 -239 0 -106 5 -149 23 -215 29 -109 66
-160 179 -252 105 -86 131 -120 131 -172 0 -29 4 -38 18 -38 9 0 33 -3 53 -6
l37 -6 7 70 c10 101 -9 153 -110 307 -96 145 -125 220 -125 322 0 63 1 65 23
59 12 -3 34 -6 48 -6 25 0 27 -3 33 -72 10 -105 31 -177 87 -300 69 -154 82
-206 77 -299 l-5 -77 45 -6 c58 -8 386 -8 406 0 12 5 16 21 16 65 0 88 20 125
120 222 126 121 163 205 177 396 5 77 9 91 25 97 11 3 22 3 25 0 10 -10 5
-215 -7 -269 -19 -82 -58 -145 -120 -195 -165 -132 -210 -185 -210 -251 0 -51
9 -61 54 -61 58 0 86 9 79 26 -3 8 -3 24 1 37 4 19 16 25 68 36 195 39 483
253 567 422 57 113 50 198 -20 274 -61 66 -156 90 -260 66 -31 -7 -39 -5 -58
15 -13 13 -46 31 -74 39 -61 18 -75 19 -59 3 116 -116 -581 -190 -968 -102
-66 15 -130 46 -130 63 0 24 165 65 309 77 l83 7 -7 -24 c-4 -13 -10 -31 -13
-39 -10 -26 27 9 44 42 l15 28 120 0 c117 0 119 -1 109 -20 -14 -26 -2 -26 26
1 22 20 26 21 145 10 67 -6 124 -10 126 -8 4 5 -89 23 -164 33 -29 4 -53 9
-53 13 1 3 7 17 15 31 23 40 18 62 -31 156 -39 72 -48 100 -51 154 -3 36 0 84
5 108 5 23 8 42 7 42 -2 0 -20 -26 -39 -57z m-700 -645 l29 -13 0 -135 c0
-159 10 -187 96 -289 67 -79 138 -173 139 -184 0 -5 -28 16 -61 45 -207 179
-219 199 -239 386 -8 77 -5 202 5 202 2 0 16 -6 31 -12z m941 -93 c-8 -57 -52
-163 -117 -280 -32 -58 -50 -82 -50 -68 0 13 11 100 25 195 14 95 25 175 25
179 0 5 21 10 48 12 26 2 53 4 61 5 11 2 12 -8 8 -43z m588 13 c61 -54 32
-171 -66 -269 -56 -56 -142 -108 -202 -123 l-28 -7 20 39 c33 65 54 153 60
257 l6 100 35 12 c19 7 61 12 92 12 45 1 62 -4 83 -21z"/>
<path d="M1540 4782 c-30 -15 -35 -22 -38 -57 -1 -22 4 -64 11 -93 8 -29 11
-54 8 -56 -3 -2 -33 -9 -66 -16 -33 -7 -77 -19 -98 -28 -36 -14 -38 -17 -33
-46 28 -141 278 -246 513 -217 70 9 115 21 208 55 38 14 -26 -33 -89 -65 -147
-77 -411 -78 -558 -3 -91 46 -157 129 -158 197 0 27 0 27 -29 13 -34 -18 -41
-34 -41 -87 0 -102 109 -192 285 -235 93 -23 286 -23 376 -1 132 32 238 97
275 168 20 40 18 112 -4 132 -29 26 -168 88 -239 106 l-68 18 4 39 c3 21 5 66
5 99 1 59 0 60 -34 77 -25 13 -59 18 -115 18 -56 0 -90 -5 -115 -18z m80 -52
c15 0 17 -7 13 -44 -5 -39 7 -150 24 -238 5 -25 2 -28 -20 -28 -28 0 -23 -11
-81 189 -9 30 -16 72 -16 94 0 39 0 39 31 33 17 -3 39 -6 49 -6z"/>
<path d="M7393 4355 c5 -173 7 -188 27 -210 12 -12 38 -25 59 -29 120 -19 188
-159 146 -302 -22 -75 -76 -131 -136 -140 -70 -12 -80 -32 -77 -153 l3 -105
195 -59 c107 -32 238 -71 290 -87 372 -115 896 -255 999 -267 l54 -6 -7 569
c-3 313 -10 584 -14 603 l-7 34 -520 114 c-652 143 -603 131 -537 132 29 1
297 -40 595 -90 423 -71 554 -90 598 -85 79 8 283 77 384 129 47 24 87 42 90
39 3 -3 5 -18 5 -33 0 -55 -186 -184 -365 -253 -55 -21 -111 -42 -124 -47 -24
-10 -24 -10 -17 -132 3 -67 8 -295 11 -507 3 -212 8 -400 11 -418 6 -37 -3
-37 142 5 138 39 226 88 312 173 l75 75 0 605 0 605 -625 6 c-344 4 -838 10
-1099 13 l-474 7 6 -186z m257 41 c109 -25 144 -37 141 -47 -3 -8 -5 -33 -5
-57 -1 -37 4 -48 32 -73 67 -60 182 -27 198 57 3 19 8 34 10 34 2 0 145 -32
317 -70 171 -39 346 -78 389 -87 56 -11 78 -20 81 -33 2 -10 5 -97 6 -194 l2
-176 -48 0 c-64 0 -119 -33 -160 -93 -94 -140 -20 -333 121 -314 23 3 52 9 65
13 l23 7 -3 -96 c-2 -52 -6 -98 -9 -101 -3 -2 -62 9 -132 25 l-126 30 -7 35
c-3 20 -23 53 -43 76 -88 98 -208 103 -294 14 -22 -23 -41 -34 -54 -31 -74 17
-559 137 -600 150 -55 16 -64 29 -64 90 0 26 6 32 46 49 58 24 103 69 134 132
19 39 24 66 24 134 1 74 -3 93 -27 142 -33 68 -85 114 -144 131 l-43 11 0 116
c0 63 -3 125 -6 138 -8 29 -2 29 176 -12z m1875 -670 l-7 -415 -82 -55 c-44
-31 -84 -56 -88 -56 -13 0 -9 153 7 241 8 46 41 176 74 289 32 113 67 253 77
312 10 59 20 105 22 103 3 -2 1 -191 -3 -419z"/>
<path d="M8480 4118 c-113 -77 -113 -279 -1 -355 53 -36 120 -32 167 9 97 85
99 244 5 332 -44 42 -121 48 -171 14z"/>
<path d="M7860 3714 c-17 -15 -37 -39 -45 -55 -30 -57 -11 -154 34 -179 57
-30 134 8 165 82 50 121 -60 230 -154 152z"/>
<path d="M1061 4380 c-56 -44 -131 -134 -162 -192 -10 -21 -19 -39 -19 -42 0
-2 20 -11 45 -19 l45 -16 20 38 c10 21 42 63 70 94 41 45 50 60 45 80 -4 14
-2 41 3 61 6 20 9 36 7 36 -2 0 -26 -18 -54 -40z"/>
<path d="M2179 4378 c4 -18 4 -46 1 -63 -5 -26 1 -38 46 -87 145 -159 174
-374 77 -566 -36 -72 -150 -187 -233 -235 -182 -106 -418 -129 -635 -63 -167
51 -273 106 -343 179 l-34 35 30 41 30 41 18 -28 c67 -103 200 -205 289 -221
239 -44 505 32 664 190 171 171 208 409 95 606 l-25 43 -30 -35 -31 -35 30
-34 c78 -89 83 -220 14 -359 -50 -99 -105 -164 -182 -217 -158 -107 -332 -118
-487 -29 -62 35 -65 48 -7 22 29 -13 67 -17 149 -18 120 0 169 14 265 79 183
124 293 365 230 504 l-19 42 -63 -34 c-121 -66 -192 -81 -383 -81 -150 0 -179
3 -245 23 -89 28 -155 61 -199 98 l-33 27 -23 -29 c-45 -55 -50 -78 -26 -126
11 -24 23 -59 27 -78 l5 -35 -19 41 c-25 52 -28 54 -136 81 -57 15 -155 54
-275 112 -224 107 -231 110 -231 81 0 -31 -49 -76 -98 -91 l-42 -12 38 -17
c53 -24 81 -62 159 -213 89 -173 166 -255 299 -320 71 -35 106 -61 175 -128
99 -97 209 -161 354 -205 83 -26 103 -28 267 -28 122 -1 169 -4 150 -10 -15
-5 -110 -10 -212 -10 -196 -1 -234 5 -377 63 l-53 21 0 -63 c0 -59 2 -63 33
-84 187 -126 630 -149 838 -42 97 49 99 52 99 154 l0 90 61 45 c111 80 195
191 241 316 18 48 22 81 23 174 0 63 -4 132 -8 153 -6 30 -5 37 8 37 12 0 14
6 9 28 -7 28 -7 30 -5 49 5 49 193 58 284 14 26 -13 55 -34 63 -47 14 -21 14
-26 -12 -71 -65 -112 -161 -196 -258 -223 -30 -8 -46 -18 -46 -29 0 -9 -3 -27
-7 -40 -5 -21 -3 -23 18 -16 66 18 169 78 218 127 50 49 52 50 35 18 -35 -65
-124 -145 -187 -168 -32 -12 -67 -22 -78 -22 -11 0 -22 -8 -26 -17 -13 -39
-43 -100 -69 -142 l-27 -44 70 5 c108 8 178 45 269 141 112 119 177 268 204
468 9 66 8 83 -5 108 -37 72 -140 132 -263 153 -58 10 -88 10 -155 -1 -156
-25 -183 -25 -203 -5 -11 11 -28 18 -40 16 -11 -2 -27 4 -34 13 -20 24 -28 18
-21 -17z m473 -69 c65 -14 168 -61 193 -89 28 -31 13 -33 -36 -6 -103 57 -268
74 -389 41 -50 -14 -56 -13 -67 2 -7 9 -13 20 -13 25 0 4 6 8 13 9 6 0 39 6
72 14 75 17 158 18 227 4z m-2080 -235 c189 -186 275 -244 436 -295 l73 -23
-6 -35 c-11 -56 -34 -92 -70 -107 -29 -12 -39 -12 -74 1 -113 40 -210 133
-316 302 -37 60 -92 138 -121 175 -34 42 -49 68 -41 71 19 8 22 6 119 -89z"/>
<path d="M4384 4347 c13 -9 17 -21 13 -36 -6 -26 9 -27 61 -5 l37 16 -30 13
c-16 7 -46 16 -65 20 -32 6 -33 6 -16 -8z"/>
<path d="M5855 4350 c-137 -27 -269 -99 -384 -207 l-76 -71 45 9 c25 4 68 8
96 9 45 0 61 7 148 65 126 83 312 154 404 155 42 0 22 -25 -40 -49 -102 -38
-234 -110 -280 -151 -24 -21 -41 -40 -38 -42 3 -2 45 -16 93 -32 178 -59 316
-166 378 -293 32 -63 34 -75 34 -165 0 -79 3 -99 15 -102 48 -13 159 -16 226
-6 136 21 222 70 243 140 l13 42 60 -6 c50 -6 62 -4 73 10 11 16 15 16 52 2
35 -14 40 -15 49 -1 8 13 15 12 57 -6 58 -25 88 -26 133 -5 70 34 100 129 65
209 -20 46 -96 145 -111 145 -4 0 -9 -33 -12 -73 -5 -77 -36 -160 -77 -207
l-22 -25 17 35 c44 91 53 180 29 275 -22 82 -69 144 -135 177 -30 15 -56 26
-57 24 -2 -1 9 -27 23 -56 36 -75 56 -189 48 -273 -4 -37 -9 -69 -13 -71 -3
-2 -7 35 -7 83 -3 170 -96 329 -236 403 -36 19 -62 23 -168 26 l-125 4 50 -33
c68 -43 165 -144 203 -211 40 -70 41 -83 2 -29 -90 123 -244 224 -438 285 -69
22 -101 26 -190 25 -59 -1 -125 -5 -147 -9z m1011 -391 c10 -17 -13 -36 -27
-22 -12 12 -4 33 11 33 5 0 12 -5 16 -11z m-536 -9 c0 -5 -4 -10 -10 -10 -5 0
-10 5 -10 10 0 6 5 10 10 10 6 0 10 -4 10 -10z m158 -43 c3 -12 -3 -17 -22
-17 -25 0 -35 18 -19 34 12 12 38 2 41 -17z m306 -6 c8 -12 -20 -22 -39 -15
-19 8 -9 24 15 24 10 0 21 -4 24 -9z m-225 -74 c14 -17 4 -27 -25 -27 -28 0
-42 19 -23 31 20 12 35 11 48 -4z m111 3 c0 -5 -7 -10 -15 -10 -8 0 -15 5 -15
10 0 6 7 10 15 10 8 0 15 -4 15 -10z m350 0 c0 -5 -7 -10 -15 -10 -8 0 -15 5
-15 10 0 6 7 10 15 10 8 0 15 -4 15 -10z m-195 -10 c-3 -5 -13 -10 -21 -10 -8
0 -14 5 -14 10 0 6 9 10 21 10 11 0 17 -4 14 -10z m315 0 c0 -5 -6 -10 -14
-10 -8 0 -18 5 -21 10 -3 6 3 10 14 10 12 0 21 -4 21 -10z m-821 -39 c17 -11
8 -39 -15 -48 -8 -3 -23 1 -31 10 -13 13 -14 19 -3 31 14 18 28 20 49 7z m631
-11 c0 -5 -2 -10 -4 -10 -3 0 -8 5 -11 10 -3 6 -1 10 4 10 6 0 11 -4 11 -10z
m185 -10 c3 -5 -3 -10 -15 -10 -12 0 -18 5 -15 10 3 6 10 10 15 10 5 0 12 -4
15 -10z m-315 -35 c0 -8 -9 -15 -20 -15 -20 0 -26 11 -13 23 12 13 33 7 33 -8z
m-202 -22 c2 -8 -5 -13 -17 -13 -21 0 -35 13 -24 24 10 10 36 3 41 -11z m472
-3 c0 -11 -6 -20 -14 -20 -18 0 -29 16 -21 30 11 18 35 11 35 -10z m-651 1
c16 -10 6 -31 -14 -31 -17 0 -28 17 -20 30 8 12 16 12 34 1z m-84 -51 c6 -19
-9 -60 -23 -60 -26 1 -44 36 -30 63 12 23 45 22 53 -3z m153 -73 c4 -22 -27
-35 -38 -16 -10 15 7 42 24 36 6 -2 12 -11 14 -20z m127 -7 c-3 -5 -10 -10
-16 -10 -5 0 -9 5 -9 10 0 6 7 10 16 10 8 0 12 -4 9 -10z"/>
<path d="M5488 4013 c-33 -4 -40 -9 -62 -56 -23 -47 -62 -185 -54 -192 2 -2
20 0 41 4 37 6 38 7 65 87 15 44 40 97 55 117 32 42 33 48 10 45 -10 -1 -35
-3 -55 -5z"/>
<path d="M5625 3959 c-40 -54 -75 -135 -75 -173 0 -20 10 -29 55 -50 121 -55
240 -162 321 -291 26 -41 50 -75 54 -75 4 0 44 28 91 63 l84 62 3 55 c9 154
-152 340 -362 421 -123 46 -129 46 -171 -12z m442 -260 c14 -14 6 -39 -12 -39
-18 0 -28 17 -21 35 6 18 18 19 33 4z m-89 -76 c3 -20 -1 -23 -27 -23 -23 0
-31 5 -31 18 0 25 10 33 35 30 12 -2 21 -12 23 -25z m156 -14 c-7 -13 -31 -11
-40 2 -9 16 18 30 33 17 7 -6 10 -14 7 -19z m-44 -48 c0 -11 -26 -22 -34 -14
-12 12 -5 23 14 23 11 0 20 -4 20 -9z m-77 -56 c1 -5 -6 -11 -15 -13 -11 -2
-18 3 -18 13 0 17 30 18 33 0z"/>
<path d="M5363 3693 c-20 -8 -16 -201 6 -308 24 -119 55 -187 102 -229 51 -47
107 -61 178 -47 98 20 158 77 195 184 38 111 17 169 -99 282 -54 52 -172 125
-204 125 -12 0 -38 -110 -46 -195 -9 -91 8 -206 40 -268 l25 -49 -32 19 c-63
36 -108 180 -123 391 -7 100 -11 108 -42 95z m437 -233 c0 -24 -26 -38 -42
-22 -16 16 -2 42 22 42 13 0 20 -7 20 -20z m-125 -130 c0 -18 -33 -26 -47 -12
-6 6 -7 15 -3 22 10 16 50 8 50 -10z m89 -31 c-3 -5 -10 -7 -15 -3 -5 3 -7 10
-3 15 3 5 10 7 15 3 5 -3 7 -10 3 -15z m31 -38 c7 -12 -12 -24 -25 -16 -11 7
-4 25 10 25 5 0 11 -4 15 -9z m-75 -46 c0 -8 -9 -15 -20 -15 -20 0 -26 11 -13
23 12 13 33 7 33 -8z"/>
<path d="M3219 3592 c-64 -17 -149 -63 -149 -81 0 -4 8 -19 18 -32 9 -13 26
-42 37 -64 21 -41 181 -208 271 -282 96 -78 247 -110 569 -120 279 -8 531 18
642 67 55 24 219 165 290 249 55 65 103 149 103 183 0 24 -35 46 -115 69 -120
36 -113 35 -87 7 29 -32 21 -53 -29 -79 -190 -96 -882 -125 -1274 -53 -195 35
-280 91 -213 138 28 20 20 19 -63 -2z m1681 -162 c0 -33 -248 -270 -283 -270
-6 0 18 30 55 68 36 37 85 94 108 127 31 45 50 63 78 71 20 7 38 12 40 13 1 1
2 -3 2 -9z m-1585 -27 c38 -8 70 -15 71 -16 1 -1 13 -25 27 -53 14 -28 46 -81
71 -118 25 -36 46 -68 46 -71 0 -11 -87 29 -130 60 -54 40 -210 201 -210 217
0 6 11 7 28 3 15 -4 58 -13 97 -22z m1063 -65 c-8 -13 -41 -71 -72 -130 -32
-60 -62 -111 -68 -114 -29 -18 -23 36 27 233 6 24 21 30 84 32 43 1 43 1 29
-21z"/>
<path d="M1500 2804 c-229 -62 -422 -354 -486 -736 l-17 -101 24 -19 c41 -33
141 -76 219 -93 152 -34 528 -31 698 5 48 11 48 11 44 46 -4 34 -6 36 -36 30
-295 -62 -704 -5 -850 117 l-30 24 27 104 c33 126 117 301 184 384 95 116 184
165 303 165 126 0 219 -48 305 -157 108 -138 191 -384 211 -622 l7 -79 -58
-21 c-203 -76 -566 -89 -843 -31 -154 32 -267 103 -232 145 11 13 8 13 -31 0
-24 -9 -50 -23 -56 -32 -41 -54 18 -337 103 -503 25 -47 72 -119 105 -160 67
-82 99 -144 124 -242 31 -118 8 -204 -63 -238 -26 -12 -32 -21 -32 -47 0 -17
4 -34 9 -37 16 -10 79 23 100 53 23 32 51 129 51 177 0 31 2 33 47 40 82 12
201 -2 298 -37 101 -35 248 -106 254 -122 10 -26 76 -88 107 -99 19 -6 34 -16
34 -20 0 -13 -97 -57 -162 -74 -89 -22 -374 -30 -491 -14 -174 23 -301 79
-284 124 8 20 5 20 -37 2 -69 -29 -55 -84 30 -123 95 -43 220 -64 431 -70 259
-8 488 22 580 77 38 22 44 13 11 -17 -66 -60 -208 -105 -394 -123 -344 -34
-740 70 -722 190 3 16 3 30 1 30 -2 0 -21 -9 -42 -20 -25 -12 -43 -30 -50 -50
-31 -90 87 -166 334 -216 109 -22 463 -31 592 -14 199 25 374 86 422 146 45
57 12 123 -84 168 -30 15 -79 37 -109 51 -72 34 -98 84 -98 195 0 133 32 222
106 300 29 30 67 77 85 103 80 117 144 308 157 468 7 78 6 81 -21 109 -15 16
-40 34 -55 40 -25 10 -28 19 -43 108 -41 251 -151 473 -298 606 -69 62 -121
92 -194 110 -72 19 -113 19 -185 0z m-435 -1088 c36 -290 185 -489 404 -540
67 -16 151 -5 248 32 113 43 207 122 265 222 34 57 73 175 88 262 l12 67 51
15 c28 8 52 14 53 13 5 -5 -26 -135 -44 -187 -74 -214 -223 -380 -394 -440
-284 -100 -565 27 -713 320 -39 77 -81 208 -91 278 l-6 50 60 -21 61 -20 6
-51z m417 -3 c215 -7 194 6 204 -128 7 -86 -8 -203 -33 -264 -22 -54 -82 -131
-101 -131 -10 0 -40 11 -69 24 -134 63 -215 214 -230 430 l-6 89 24 -7 c13 -3
108 -9 211 -13z"/>
<path d="M5590 2711 c0 -28 164 -332 244 -453 17 -27 15 -26 -71 17 -214 106
-548 152 -698 95 l-29 -11 60 -61 c90 -92 286 -253 404 -331 155 -103 318
-177 479 -217 23 -6 41 -13 40 -15 -2 -2 -59 -24 -126 -49 -170 -63 -310 -125
-504 -222 -133 -66 -312 -164 -327 -178 -1 -2 10 -24 24 -50 l26 -47 27 18
c63 42 153 93 238 137 95 49 296 137 301 131 2 -1 -19 -32 -46 -67 -27 -36
-62 -93 -78 -126 l-29 -62 -46 6 c-35 5 -57 1 -90 -14 -81 -38 -116 -83 -155
-198 -50 -149 -22 -259 82 -320 147 -86 284 -2 348 215 33 112 10 229 -53 268
-14 10 -27 18 -29 19 -10 6 75 150 127 216 87 111 114 123 371 178 131 27 142
26 94 -8 -47 -35 -112 -104 -148 -159 -24 -36 -32 -41 -76 -45 -63 -6 -121
-44 -154 -100 -49 -86 -71 -240 -45 -319 40 -118 191 -184 297 -130 49 25 65
44 100 119 l30 62 17 -52 c38 -119 110 -180 213 -181 76 0 125 17 160 58 44
50 55 94 49 199 -5 105 -33 190 -79 242 -38 43 -59 54 -117 63 -46 6 -46 7
-57 56 -14 56 -18 214 -6 231 6 10 212 34 290 34 l28 0 -4 -199 c-7 -344 42
-532 202 -781 80 -124 223 -257 248 -232 18 18 14 443 -5 588 -31 223 -89 409
-172 543 -25 40 -45 75 -45 78 0 3 78 3 174 -1 l175 -7 -36 98 c-19 54 -45
126 -56 161 -21 61 -22 62 -57 62 -47 0 -286 -35 -433 -64 l-118 -23 -21 51
c-157 370 -438 647 -765 754 -79 26 -173 39 -173 23z m602 -546 c121 -141 248
-298 248 -307 0 -5 -11 -8 -24 -8 -18 0 -47 29 -129 133 -95 121 -283 349
-425 517 -30 36 12 -2 94 -85 82 -82 188 -195 236 -250z m-687 36 c197 -94
578 -306 661 -368 17 -13 36 -23 42 -23 25 0 10 -18 -19 -24 -25 -5 -41 1 -87
32 -118 79 -622 376 -739 436 -29 14 -53 28 -53 31 0 6 57 -19 195 -84z m1319
-568 c3 -16 19 -110 36 -210 35 -210 77 -435 115 -607 14 -65 24 -121 22 -123
-5 -4 -64 204 -101 352 -51 206 -116 537 -116 594 0 33 37 28 44 -6z m-515
-267 c7 -16 10 -30 9 -31 -2 -1 -17 -10 -35 -19 -18 -9 -48 -32 -66 -51 l-35
-36 -6 25 c-8 34 -54 86 -88 101 l-29 12 44 59 c24 33 75 84 113 112 l69 52 7
-98 c3 -53 11 -110 17 -126z m-432 -76 c-28 -32 -42 -70 -56 -142 -8 -44 -1
-62 14 -38 3 6 17 10 31 10 19 0 28 -8 40 -35 19 -46 9 -82 -28 -105 l-30 -18
29 -26 c31 -30 79 -45 138 -47 l40 -1 -35 -15 c-72 -31 -182 14 -219 90 -41
85 -19 241 46 317 19 22 39 40 45 40 5 0 -1 -13 -15 -30z m242 -6 c12 -15 26
-45 32 -68 12 -42 5 -140 -12 -179 -6 -16 -8 -8 -3 28 6 54 -3 100 -35 185
-24 63 -24 60 -12 60 5 0 19 -12 30 -26z m362 -7 c42 -28 87 -116 94 -182 l5
-50 -14 42 c-16 49 -61 129 -79 140 -6 5 -25 23 -41 41 -36 39 -17 44 35 9z
m-244 -85 c-16 -59 13 -224 30 -174 3 7 13 17 24 22 27 15 57 -4 75 -46 17
-42 9 -81 -19 -90 -20 -6 -20 -7 4 -20 38 -21 138 -18 177 6 l33 20 -11 -21
c-16 -28 -86 -59 -138 -59 -90 0 -159 57 -189 158 -23 76 -23 177 1 220 23 43
27 38 13 -16z m-850 -37 c-40 -38 -110 -185 -87 -185 5 0 12 5 15 10 11 18 44
10 61 -15 29 -44 -2 -125 -48 -125 -25 0 -23 -13 9 -45 38 -37 80 -57 124 -59
44 -1 42 -11 -3 -20 -70 -13 -156 34 -189 102 -44 90 -2 254 86 330 42 38 72
44 32 7z m252 -90 c6 -24 8 -58 5 -77 -9 -51 -35 -132 -47 -143 -7 -7 -8 -4
-3 10 25 69 28 118 12 197 -9 44 -19 86 -23 92 -3 6 5 1 19 -12 15 -13 31 -43
37 -67z"/>
<path d="M1740 2642 c0 -5 9 -35 20 -66 48 -139 65 -253 65 -428 l0 -168 40 0
c45 0 155 26 169 40 5 5 -1 50 -14 107 -44 189 -115 358 -186 442 -38 44 -94
88 -94 73z"/>
<path d="M4130 2604 c-141 -38 -225 -138 -245 -291 -6 -39 -13 -53 -38 -71
-18 -12 -42 -29 -54 -38 l-23 -16 15 41 c8 24 19 60 25 82 8 28 19 43 37 50
19 7 24 14 20 31 -3 11 3 38 14 59 10 21 19 54 19 73 0 32 -3 36 -32 40 -18 3
-57 10 -85 15 l-53 8 -2 -41 c0 -22 0 -48 2 -56 1 -8 3 -36 4 -61 1 -25 6 -52
13 -60 8 -11 3 -50 -23 -169 -38 -172 -54 -305 -47 -392 5 -52 3 -58 -13 -58
-43 1 -48 14 -48 124 l0 104 -56 17 c-30 9 -100 19 -155 22 -120 6 -225 -16
-345 -73 -102 -48 -131 -73 -167 -141 -45 -84 -64 -188 -64 -361 0 -287 69
-610 180 -848 51 -108 107 -169 174 -189 66 -19 187 -19 257 1 219 63 216 63
437 13 214 -47 337 -36 409 39 98 101 203 373 256 665 30 164 32 458 5 556
-46 161 -103 219 -282 286 -34 13 -90 29 -124 35 -89 16 -258 13 -341 -6 -39
-9 -74 -14 -77 -11 -3 3 2 31 11 61 18 61 54 108 115 150 l40 28 28 -20 c198
-139 564 -118 816 47 116 77 191 171 257 325 l20 48 -22 -6 c-86 -24 -189 -28
-363 -12 -223 20 -420 20 -495 0z m176 -36 c-19 -26 -66 -124 -66 -137 0 -10
-61 -33 -68 -26 -8 8 18 86 46 138 23 44 28 47 65 47 39 0 39 0 23 -22z m-126
-50 c-17 -35 -33 -78 -36 -96 -6 -28 -14 -37 -52 -53 -25 -11 -47 -18 -49 -15
-8 7 18 90 48 153 29 62 38 68 96 72 22 1 22 0 -7 -61z m254 56 c24 -9 -79
-121 -123 -134 -19 -5 -37 -8 -39 -5 -7 7 17 68 43 108 22 32 30 37 64 37 22
0 46 -3 55 -6z m125 -20 c21 -7 -76 -75 -121 -86 -23 -5 -43 -6 -46 -3 -3 3
16 28 43 55 49 50 62 53 124 34z m-502 -61 c-14 -26 -30 -73 -37 -104 -11 -49
-17 -59 -47 -73 -18 -9 -36 -16 -39 -16 -12 0 9 87 32 131 21 42 101 125 111
115 3 -2 -7 -26 -20 -53z m643 38 l45 -8 -35 -6 c-177 -33 -193 -33 -150 -2
35 26 62 29 140 16z m129 -56 c-24 -35 -24 -35 -99 -34 -41 0 -93 4 -115 8
l-40 7 75 17 c41 9 102 23 135 30 33 7 62 12 64 10 2 -1 -7 -18 -20 -38z
m-176 -51 c64 -4 117 -10 117 -15 0 -9 -80 -79 -91 -79 -10 0 -201 56 -233 69
-46 18 -2 44 59 35 17 -2 83 -7 148 -10z m-202 -53 c42 -17 106 -36 143 -43
36 -7 66 -15 66 -18 0 -9 -69 -50 -85 -50 -22 0 -168 61 -229 96 l-50 28 30
13 c16 6 34 10 39 8 6 -2 44 -17 86 -34z m41 -108 c32 -10 58 -21 58 -25 0 -4
-18 -13 -40 -19 -35 -11 -47 -9 -112 15 -88 32 -211 97 -209 111 1 6 16 15 33
21 29 9 41 6 122 -37 50 -26 117 -55 148 -66z m-285 30 c37 -21 105 -52 151
-69 l83 -31 -38 -6 c-21 -4 -53 -7 -72 -7 -34 0 -178 62 -232 101 -30 21 -31
23 -13 36 28 20 48 16 121 -24z m-133 -29 c21 -15 66 -39 100 -55 33 -15 53
-28 43 -29 -39 -1 -174 33 -216 54 l-45 23 30 16 c39 22 43 21 88 -9z m207
-419 c67 -23 114 -67 151 -143 l33 -67 -1 -160 c-1 -116 -7 -189 -22 -265
l-20 -105 5 175 c3 116 1 197 -7 240 -17 92 -72 191 -152 272 -71 72 -69 81
13 53z m-271 -114 c-23 -45 -72 -82 -148 -111 -165 -63 -338 -15 -402 110 -27
53 -26 66 4 47 52 -34 168 -61 266 -61 114 0 190 20 252 67 42 33 43 33 46 11
2 -12 -6 -41 -18 -63z m-914 -26 c19 -14 45 -45 58 -68 23 -38 24 -47 14 -80
-9 -30 -16 -37 -37 -37 -28 0 -125 42 -135 58 -12 20 40 152 61 152 3 0 21
-11 39 -25z m-68 -224 c20 -10 52 -22 70 -26 30 -6 33 -10 30 -34 -34 -200
-65 -350 -73 -348 -15 5 -45 91 -61 175 -13 71 -20 252 -9 252 3 0 22 -8 43
-19z m1322 -227 c-39 -303 -116 -449 -259 -491 -112 -32 -349 0 -372 51 -22
47 -13 54 351 291 90 59 160 114 210 165 41 42 76 75 78 74 2 -1 -2 -42 -8
-90z m11 -436 c-34 -131 -79 -235 -122 -277 -53 -54 -150 -50 -299 13 l-75 31
111 6 c152 8 204 32 273 126 28 37 70 105 93 150 24 45 44 78 46 73 2 -5 -10
-60 -27 -122z"/>
<path d="M8250 2214 c-211 -25 -395 -76 -520 -145 -100 -56 -224 -180 -268
-269 -49 -100 -72 -205 -72 -332 0 -147 21 -242 77 -358 114 -233 336 -356
750 -416 160 -24 533 -24 687 -1 165 25 301 63 402 112 155 75 265 213 328
412 46 149 53 347 15 478 -34 120 -131 242 -264 334 -198 137 -392 180 -835
186 -146 2 -281 1 -300 -1z m474 -170 c13 -5 14 -9 5 -20 -13 -16 -37 -18 -58
-5 -31 20 14 40 53 25z m-519 -29 c0 -15 -8 -21 -34 -23 -38 -4 -57 9 -47 33
4 12 16 15 43 13 30 -2 38 -7 38 -23z m725 -59 c0 -18 -22 -26 -49 -19 -35 9
-25 33 14 33 23 0 35 -5 35 -14z m-532 -12 c12 -4 22 -12 22 -20 0 -30 -102
-32 -108 -2 -4 22 40 34 86 22z m762 -23 c0 -5 -8 -11 -17 -13 -25 -6 -54 3
-47 13 7 12 64 12 64 0z m-365 -36 c102 -21 179 -53 222 -90 l38 -33 -30 -32
c-109 -115 -301 -180 -530 -180 -176 0 -334 34 -455 96 -68 36 -83 50 -75 73
6 19 7 20 48 2 132 -55 273 -75 494 -68 171 5 272 20 343 49 l30 13 -22 31
c-49 69 -169 123 -290 131 -75 6 -98 16 -60 27 29 9 212 -4 287 -19z m-955
-20 c6 -8 9 -18 6 -23 -9 -16 -72 -23 -100 -12 -27 10 -35 35 -13 43 27 12 95
6 107 -8z m151 -11 c11 -14 10 -18 -6 -30 -22 -17 -40 -18 -66 -4 -22 12 -25
36 -6 43 26 11 65 6 78 -9z m227 -6 c17 -17 15 -36 -7 -47 -27 -15 -56 9 -47
37 8 24 35 29 54 10z m1046 -54 c40 -15 -5 -61 -47 -48 -29 9 -39 25 -25 41
11 14 46 17 72 7z m-1443 -94 c38 -21 17 -50 -36 -50 -52 0 -74 28 -37 49 22
13 48 14 73 1z m1417 -72 c3 -14 -3 -18 -27 -18 -31 0 -47 13 -36 31 11 16 59
6 63 -13z m-200 -80 c3 -13 -3 -18 -22 -18 -27 0 -41 14 -31 31 10 16 49 6 53
-13z m-980 6 c55 -15 0 -52 -59 -39 -33 7 -37 19 -11 34 20 12 38 13 70 5z
m-484 -18 c31 -13 33 -18 44 -85 32 -192 130 -305 246 -284 17 3 92 34 166 69
185 87 187 87 321 -27 173 -148 311 -129 465 66 36 46 73 86 81 89 25 10 49
-11 92 -83 51 -86 83 -113 129 -109 46 4 69 36 83 117 21 114 66 134 198 85
69 -26 70 -26 65 -57 -50 -292 -247 -454 -644 -529 -153 -30 -512 -32 -660 -5
-470 86 -670 275 -687 650 l-6 117 37 0 c20 0 51 -6 70 -14z m997 -79 c-13
-13 -26 -3 -16 12 3 6 11 8 17 5 6 -4 6 -10 -1 -17z m-607 -13 c26 -10 18 -24
-14 -24 -30 0 -41 14 -17 23 6 3 13 6 14 6 1 1 8 -2 17 -5z m361 -29 c0 -5
-15 -11 -32 -13 -25 -3 -33 1 -33 13 0 12 8 16 33 13 17 -2 32 -7 32 -13z"/>
<path d="M9353 1278 c-23 -46 -104 -138 -171 -192 -156 -126 -393 -206 -657
-223 -60 -3 -102 -10 -97 -15 16 -16 233 -21 341 -9 351 41 584 182 645 390 9
30 14 56 13 58 -2 1 -17 5 -33 9 -25 5 -32 2 -41 -18z"/>
</g>
</svg>
