<?xml version="1.0" standalone="no"?>
<!DOCTYPE svg PUBLIC "-//W3C//DTD SVG 20010904//EN"
 "http://www.w3.org/TR/2001/REC-SVG-20010904/DTD/svg10.dtd">
<svg version="1.0" xmlns="http://www.w3.org/2000/svg"
 width="225.000000pt" height="225.000000pt" viewBox="0 0 225.000000 225.000000"
 preserveAspectRatio="xMidYMid meet">

<g transform="translate(0.000000,225.000000) scale(0.100000,-0.100000)"
fill="#000000" stroke="none">
<path d="M1178 1815 c-26 -9 -50 -21 -54 -27 -12 -19 -4 -91 12 -109 9 -10 14
-37 14 -72 0 -56 -1 -57 -39 -77 -22 -11 -44 -27 -49 -36 -7 -12 -11 -3 -14
36 -9 86 -24 95 -171 95 -162 0 -177 -8 -177 -99 0 -44 5 -67 15 -76 23 -19
18 -36 -19 -58 -32 -19 -35 -25 -41 -86 l-7 -66 -42 -1 c-23 -1 -31 -4 -18 -6
21 -4 22 -9 22 -93 l0 -90 -25 12 c-22 10 -25 18 -27 72 l-2 61 -3 -57 c-2
-32 -8 -58 -13 -58 -13 0 -15 15 -12 75 3 39 8 55 18 55 8 0 14 5 14 10 0 6
-15 8 -40 4 -48 -8 -79 1 -62 18 7 7 12 17 12 23 -1 5 -10 -1 -20 -14 -11 -13
-20 -18 -20 -11 0 14 29 69 48 88 15 17 15 23 0 19 -7 -1 -12 4 -10 12 2 8 6
43 9 78 9 98 29 80 40 -36 4 -44 3 -62 -5 -58 -11 8 -11 -11 1 -30 4 -6 3 -13
-3 -15 -5 -1 2 -8 15 -14 22 -11 25 -9 40 22 8 18 20 36 26 40 8 5 8 9 0 14
-15 9 -1 152 15 157 6 2 11 -2 11 -9 0 -7 5 -40 12 -72 9 -51 9 -62 -5 -77
-11 -13 -12 -19 -3 -24 8 -6 4 -12 -12 -21 -29 -16 -21 -18 16 -4 14 5 23 14
20 20 -3 5 -1 19 5 31 8 15 9 34 1 67 -6 26 -13 59 -16 75 -4 19 -12 27 -25
27 -28 0 -40 -35 -45 -134 -4 -56 -10 -85 -21 -96 -15 -14 -16 -12 -10 15 10
41 10 52 -3 119 -26 144 -76 90 -85 -91 -2 -29 -9 -60 -17 -69 -9 -11 -12 -45
-10 -120 1 -69 -1 -104 -8 -104 -6 0 -21 -10 -34 -22 -16 -17 -34 -23 -67 -23
-36 0 -47 -4 -54 -21 -8 -18 -18 -21 -60 -20 -43 1 -52 -2 -60 -20 -5 -12 -31
-31 -58 -42 -73 -31 -68 -40 68 -116 55 -31 113 -56 129 -56 24 0 278 124 312
152 30 24 10 -5 -21 -33 -42 -36 -57 -77 -52 -143 3 -37 9 -53 27 -67 l24 -17
-28 -7 c-15 -4 -39 -4 -54 0 -27 6 -27 7 -9 21 11 8 15 14 10 14 -17 0 -34
-23 -34 -48 0 -26 48 -52 97 -52 15 0 35 -5 43 -10 13 -9 12 -12 -4 -25 -23
-18 -45 -19 -83 -4 -27 10 -27 11 -9 25 16 11 17 14 4 14 -9 0 -21 -14 -27
-30 -14 -42 13 -70 69 -70 36 0 80 28 80 51 0 4 11 10 24 13 25 6 42 38 31 56
-5 8 -11 8 -20 0 -18 -15 -87 -9 -93 8 -2 6 3 12 12 12 9 0 13 6 10 15 -9 24
43 30 88 11 9 -4 29 -1 47 8 23 12 36 14 58 5 50 -19 84 -3 208 102 66 55 129
111 140 124 19 22 23 23 75 13 30 -5 83 -8 118 -4 51 4 62 3 62 -10 0 -8 -12
-19 -27 -25 -16 -6 -41 -17 -58 -25 -16 -7 -48 -20 -70 -28 -120 -42 -155 -69
-122 -93 6 -5 111 -51 231 -102 249 -106 206 -103 351 -23 159 88 249 134 239
123 -19 -21 -2 -75 28 -85 39 -14 199 60 213 98 8 22 5 31 -18 53 -30 30 -23
31 -152 -21 -34 -14 -37 -14 -21 -1 11 8 17 17 14 21 -7 7 -24 -2 -255 -128
l-182 -99 -73 29 c-40 16 -140 58 -222 92 -140 60 -147 64 -125 76 31 17 49
17 49 0 0 -17 22 -26 66 -26 23 0 34 -5 34 -15 0 -21 37 -37 71 -30 22 5 29 3
29 -9 0 -21 37 -39 71 -34 22 4 29 0 34 -19 10 -41 93 -44 115 -3 8 15 6 24
-10 40 -20 20 -74 28 -84 11 -3 -4 11 -8 31 -7 27 1 36 -3 39 -17 2 -16 -2
-17 -29 -11 -37 7 -59 23 -51 35 18 29 -50 70 -84 50 -13 -8 -8 -10 24 -11 29
0 41 -4 41 -15 0 -8 -6 -16 -14 -19 -7 -3 -13 -1 -13 4 0 6 -11 10 -25 10 -20
0 -27 6 -32 30 -7 38 -35 54 -81 47 -19 -4 -32 -3 -29 0 4 3 2 14 -4 24 -6 12
-6 19 0 19 5 0 11 -6 14 -12 2 -8 21 -13 50 -12 39 1 46 -2 49 -20 3 -18 10
-21 51 -21 36 0 49 -4 53 -17 6 -21 44 -33 79 -24 20 5 25 3 25 -14 0 -22 30
-34 76 -28 24 2 29 8 29 29 -1 25 2 26 35 22 39 -6 76 18 66 43 -4 9 4 11 28
7 37 -6 63 16 51 44 -6 16 -8 16 -16 -4 -7 -19 -12 -21 -31 -14 -13 4 -23 12
-23 17 0 11 60 23 88 18 12 -2 -29 13 -90 34 -62 20 -113 42 -113 49 0 9 10 8
41 -2 56 -20 87 -19 134 5 21 11 39 19 39 17 8 -27 35 -46 97 -69 115 -42 149
-35 149 28 0 36 -8 44 -60 59 -28 9 -34 15 -32 33 2 11 -2 31 -8 43 -11 19
-17 21 -76 14 l-64 -7 0 100 c0 96 -1 102 -25 120 -15 12 -21 23 -15 27 5 3
10 20 10 37 0 25 -3 29 -17 22 -56 -25 -175 -10 -133 16 21 13 30 12 28 -2 -4
-20 61 -23 68 -3 4 10 14 14 28 10 11 -2 8 2 -9 10 -40 19 -95 19 -123 -1 -23
-16 -30 -62 -12 -80 7 -7 4 -16 -10 -29 -20 -18 -21 -18 -44 4 -14 13 -22 30
-19 41 3 10 0 21 -6 24 -6 4 -11 24 -11 44 0 20 -5 44 -10 52 -7 12 -4 16 18
20 22 4 28 11 30 38 3 29 0 33 -26 38 l-29 6 -14 116 c-14 114 -15 117 -42
126 -19 7 -34 7 -46 -1 -17 -10 -19 -7 -25 27 -9 60 -37 73 -159 77 -71 2
-116 -2 -149 -12z m2 -32 c0 -5 55 -7 122 -5 67 2 133 0 146 -3 24 -6 24 -6 5
-20 -47 -33 -175 -39 -275 -14 -37 10 -51 32 -25 42 19 8 27 8 27 0z m276 -80
c-11 -11 -19 6 -11 24 8 17 8 17 12 0 3 -10 2 -21 -1 -24z m-298 -3 c3 -21 2
-22 -12 -11 -19 16 -21 44 -3 39 6 -3 14 -15 15 -28z m405 5 c-1 -5 -12 -13
-25 -17 -20 -5 -19 -6 8 -7 l31 -1 8 -82 c4 -46 9 -92 10 -103 4 -33 -6 -45
-34 -44 -14 1 -30 1 -36 -1 -34 -9 -45 1 -45 38 0 45 26 207 35 222 8 14 51 9
48 -5z m-76 -47 c-3 -18 -9 -52 -12 -76 -4 -23 -11 -40 -16 -36 -15 9 -10 93
7 119 22 33 27 31 21 -7z m-267 -38 c0 -5 -4 -10 -10 -10 -5 0 -10 5 -10 10 0
6 5 10 10 10 6 0 10 -4 10 -10z m-221 -32 l34 -16 -29 -18 c-55 -36 -294 -19
-281 20 12 36 204 46 276 14z m-126 -65 c56 2 113 8 126 12 38 13 22 -27 -19
-47 -40 -19 -192 -24 -237 -8 -26 10 -27 9 -8 -5 47 -37 137 -45 225 -21 43
11 51 11 37 1 -27 -20 -135 -34 -194 -26 -67 9 -93 32 -93 82 l0 37 30 -15
c24 -11 55 -14 133 -10z m282 -33 c3 -6 -1 -7 -9 -4 -18 7 -21 14 -7 14 6 0
13 -4 16 -10z m182 -6 c-3 -3 -12 -4 -19 -1 -8 3 -5 6 6 6 11 1 17 -2 13 -5z
m-207 -14 c0 -5 -2 -10 -4 -10 -3 0 -8 5 -11 10 -3 6 -1 10 4 10 6 0 11 -4 11
-10z m337 -15 c12 -27 3 -32 -31 -19 -12 5 -13 10 -5 25 13 25 22 24 36 -6z
m-424 -17 c-5 -26 -23 -40 -23 -18 0 10 23 51 26 47 1 -1 0 -14 -3 -29z m615
11 c4 -20 -16 -29 -50 -22 -25 5 -25 6 -10 23 20 22 56 21 60 -1z m-338 -35
c0 -8 -5 -12 -10 -9 -6 4 -8 11 -5 16 9 14 15 11 15 -7z m-542 0 c26 -7 30
-34 4 -34 -19 0 -42 18 -42 32 0 9 7 10 38 2z m204 -16 c-6 -6 -15 -8 -19 -4
-4 4 -1 11 7 16 8 5 17 7 19 4 3 -2 -1 -10 -7 -16z m536 -6 c3 -9 -3 -13 -19
-10 -12 1 -24 9 -27 16 -3 9 3 13 19 10 12 -1 24 -9 27 -16z m-734 -32 c46
-17 159 -14 201 6 31 15 38 15 46 3 5 -8 9 -9 9 -3 0 5 -5 15 -12 22 -16 16
-3 15 31 -3 44 -22 45 -40 2 -42 -20 -1 -85 -15 -146 -32 -128 -36 -148 -37
-183 -13 -48 33 -58 34 -22 3 19 -17 49 -33 65 -36 30 -6 30 -7 27 -63 l-2
-57 16 30 c25 46 46 66 62 60 12 -5 13 -3 2 10 -11 13 -10 14 4 9 9 -3 16 -1
16 5 0 6 7 11 15 11 8 0 15 5 15 11 0 7 12 10 30 7 16 -2 31 -2 32 1 4 8 101
41 106 36 2 -2 0 -59 -3 -128 l-8 -124 -31 15 c-17 9 -45 15 -63 15 -32 -1
-156 -44 -251 -89 -61 -28 -59 -28 -59 -11 0 6 -4 89 -8 183 l-7 171 27 21
c25 20 30 21 44 8 9 -8 29 -20 45 -26z m776 6 c8 -2 -9 -4 -37 -5 -29 0 -53 3
-53 7 0 7 52 6 90 -2z m-54 -27 c6 -5 9 -22 6 -39 -4 -27 -8 -31 -31 -28 -23
3 -26 8 -29 46 -3 42 -2 43 20 37 13 -4 28 -11 34 -16z m98 -11 c9 -36 7 -48
-9 -48 -10 0 -15 11 -15 35 0 39 14 47 24 13z m-285 -58 c51 0 53 -1 49 -25
-3 -13 -1 -22 3 -19 5 3 9 -4 9 -16 0 -14 -4 -19 -12 -14 -8 5 -7 0 2 -11 8
-10 10 -16 4 -12 -7 4 -10 -10 -8 -41 2 -54 -8 -72 -42 -72 -18 0 -24 6 -25
23 0 16 -2 18 -7 7 -4 -8 -20 -16 -37 -17 -27 -2 -24 1 14 13 11 4 11 7 0 21
-12 14 -11 15 10 8 22 -7 23 -6 19 49 -1 31 0 56 5 56 4 0 7 9 7 20 0 18 -7
20 -57 20 -42 0 -54 3 -43 10 8 6 24 8 35 5 11 -2 44 -5 74 -5z m98 -7 c0 -22
-16 -45 -27 -38 -16 10 3 51 26 55 0 0 1 -8 1 -17z m-560 1 c-3 -3 -12 -4 -19
-1 -8 3 -5 6 6 6 11 1 17 -2 13 -5z m663 -14 l55 -7 -50 -1 c-58 -2 -95 6 -95
20 0 6 7 7 18 2 9 -4 42 -10 72 -14z m274 0 l51 -8 -46 -1 c-28 -1 -53 5 -65
15 -10 8 -13 12 -5 9 7 -4 36 -11 65 -15z m-530 -6 c12 -5 16 -20 16 -60 l0
-53 -41 -11 c-22 -6 -46 -9 -52 -6 -7 2 -4 5 6 5 10 1 15 6 12 11 -3 6 -1 10
4 10 15 0 14 67 -1 73 -7 3 3 9 22 13 34 7 34 8 10 15 -14 4 -18 7 -8 8 9 1
23 -2 32 -5z m196 -13 c0 -5 10 -7 22 -3 14 3 19 2 14 -6 -10 -17 67 -15 109
2 64 27 73 -8 67 -251 -1 -82 -5 -103 -16 -103 -8 0 -18 5 -22 12 -4 6 -3 8 2
5 6 -3 6 12 0 41 l-11 46 -6 -50 c-3 -27 -7 -40 -8 -29 -2 11 -5 15 -8 8 -3
-9 -20 -11 -56 -7 -44 5 -56 3 -76 -15 -13 -12 -32 -21 -42 -21 -22 0 -26 21
-34 195 -6 123 -5 133 15 158 21 26 50 37 50 18z m406 -36 c42 -39 32 -50 -48
-50 -40 0 -85 -3 -100 -8 -37 -10 -37 8 -1 54 24 32 29 34 75 30 34 -2 57 -10
74 -26z m-1429 -22 c-3 -10 -5 -2 -5 17 0 19 2 27 5 18 2 -10 2 -26 0 -35z
m212 -45 c-1 -59 -4 -80 -8 -58 -6 35 -3 150 5 150 2 0 3 -42 3 -92z m-149 24
c0 -57 -15 -108 -35 -116 -6 -2 -11 31 -13 85 l-3 89 25 0 c25 0 26 -2 26 -58z
m1368 -38 c45 -13 20 -24 -52 -24 -83 0 -116 7 -94 21 15 10 112 12 146 3z
m-1431 -51 c-3 -10 -5 -2 -5 17 0 19 2 27 5 18 2 -10 2 -26 0 -35z m794 26
c-16 -6 -28 -6 -35 1 -7 7 1 10 25 9 32 0 33 -1 10 -10z m-196 -18 c-6 -4 -49
-31 -97 -59 l-87 -50 -35 16 -36 16 98 42 c86 37 183 59 157 35z m861 -26 c3
-17 3 -51 0 -75 -2 -25 -5 -52 -5 -61 -2 -35 -110 -53 -166 -27 -24 11 -25 14
-25 102 l0 91 95 0 95 0 6 -30z m-1314 4 c64 -25 64 -25 49 -43 -9 -11 -19
-13 -37 -5 -14 5 -36 9 -48 9 -28 0 -50 24 -42 45 7 20 15 19 78 -6z m-109
-32 c-2 -4 9 -12 26 -18 17 -6 31 -15 31 -19 0 -17 -32 -19 -127 -11 -14 1
-27 37 -18 51 3 6 26 9 50 8 23 -2 41 -6 38 -11z m-95 -49 c35 -14 52 -26 52
-38 0 -14 -7 -18 -32 -16 -17 1 -34 8 -36 14 -2 8 -9 9 -20 3 -19 -10 -82 11
-82 28 0 18 32 42 49 36 9 -4 40 -16 69 -27z m1672 18 c0 -2 3 -11 6 -20 9
-24 -44 -42 -61 -20 -8 12 -21 15 -43 12 -44 -6 -40 6 6 19 39 11 92 16 92 9z
m-1796 -51 c37 -14 70 -23 74 -21 4 2 7 -10 8 -27 1 -18 -1 -27 -3 -21 -2 7
-12 10 -23 7 -10 -3 -33 2 -49 10 -33 17 -53 5 -24 -13 15 -9 14 -10 -7 -4
-70 18 -96 48 -70 79 16 19 16 19 94 -10z m845 -5 c-12 -16 -27 -26 -32 -23
-6 3 3 17 19 30 38 30 39 29 13 -7z m-489 -11 c0 -5 -4 -9 -9 -9 -5 0 -17 -3
-26 -6 -15 -6 -15 -4 -4 14 12 19 39 20 39 1z m138 -6 c-10 -2 -26 -2 -35 0
-10 3 -2 5 17 5 19 0 27 -2 18 -5z m1340 -18 c62 -16 72 -22 52 -35 -33 -21
-120 -2 -120 27 0 7 -8 13 -17 13 -10 0 -25 5 -33 11 -18 12 35 5 118 -16z
m-1554 3 c30 2 10 -11 -127 -82 -93 -48 -135 -65 -150 -60 -12 3 -65 30 -117
60 l-94 53 38 16 c21 9 39 15 41 13 1 -2 7 -13 13 -24 7 -13 42 -34 93 -54 92
-37 112 -34 117 18 l3 32 36 -15 c38 -16 72 -12 74 8 1 7 2 17 4 22 1 6 3 14
3 18 1 5 12 5 25 1 12 -4 31 -7 41 -6z m261 2 c3 -6 -1 -7 -9 -4 -18 7 -21 14
-7 14 6 0 13 -4 16 -10z m265 -12 c0 -5 -11 -13 -24 -18 -13 -5 -26 -15 -29
-22 -3 -10 -7 -10 -17 -1 -9 8 -8 12 8 17 11 4 22 13 25 20 6 14 37 18 37 4z
m-283 -24 c15 -15 21 -22 12 -16 -8 7 -31 18 -50 26 -27 12 -29 15 -12 16 12
0 35 -12 50 -26z m758 17 c8 -14 -12 -23 -36 -16 -17 6 -19 9 -8 16 18 11 36
11 44 0z m59 -10 c18 -7 18 -8 3 -14 -9 -3 -17 -15 -17 -25 0 -15 -6 -17 -35
-14 -37 4 -69 -13 -62 -32 7 -18 -86 -14 -100 4 -7 8 -13 19 -13 24 0 6 6 2
13 -8 9 -13 23 -17 52 -14 35 3 40 6 37 26 -3 20 0 22 22 16 37 -9 69 4 63 27
-5 20 5 23 37 10z m-864 -38 c17 -16 34 -43 39 -60 13 -46 5 -41 -18 12 -11
25 -21 45 -23 45 -2 0 -21 7 -43 15 -36 13 -37 14 -13 15 17 0 40 -11 58 -27z
m-153 -7 c-14 -13 -28 -35 -31 -48 -3 -12 -7 -32 -9 -43 -3 -14 -5 -12 -6 8
-1 33 22 82 46 96 28 16 28 13 0 -13z m202 -10 c-3 -3 -11 5 -18 17 -13 21
-12 21 5 5 10 -10 16 -20 13 -22z m211 12 c0 -6 -7 -7 -16 -4 -8 3 -12 2 -9
-3 3 -5 0 -13 -6 -16 -17 -11 -21 1 -8 23 12 20 39 20 39 0z m465 13 c3 -5 2
-12 -3 -15 -12 -7 -52 4 -52 15 0 12 47 12 55 0z m195 -7 c0 -11 -5 -14 -16
-10 -9 3 -22 6 -30 6 -9 0 -12 5 -9 10 10 17 55 12 55 -6z m56 6 c8 0 14 -4
14 -10 0 -5 -6 -10 -14 -10 -19 0 -26 -21 -14 -42 6 -12 20 -18 43 -18 37 0
50 12 40 38 -6 15 -7 16 -15 1 -10 -17 -60 -15 -60 1 0 21 80 22 130 2 25 -11
25 -11 2 -11 -12 -1 -24 -7 -26 -13 -20 -75 -25 -79 -76 -62 -24 8 16 26 43
20 21 -6 21 -6 2 5 -32 16 -75 -4 -75 -35 0 -20 -4 -24 -17 -20 -14 5 -15 4
-4 -4 8 -6 11 -17 8 -25 -5 -13 -11 -14 -36 -4 -37 14 -39 23 -9 30 12 4 20 9
16 12 -3 3 -17 1 -32 -4 -23 -9 -26 -8 -26 9 0 11 -12 26 -27 34 -20 11 -23
15 -10 16 10 0 17 8 17 20 0 11 7 20 15 20 12 0 13 -4 3 -25 -16 -35 5 -57 51
-53 31 3 36 7 39 31 3 22 -1 30 -17 34 -16 4 -18 9 -10 30 5 14 6 30 2 36 -4
7 0 8 11 4 10 -4 24 -7 32 -7z m-1012 -9 c3 -4 -8 -7 -24 -7 -16 0 -27 2 -25
6 5 9 44 10 49 1z m-64 -15 c0 -2 -8 -10 -17 -17 -16 -13 -17 -12 -4 4 13 16
21 21 21 13z m109 -51 c0 -14 -4 -10 -14 14 -19 42 -19 50 0 25 8 -10 14 -28
14 -39z m621 31 c0 -21 -11 -25 -38 -15 -28 11 -20 29 14 29 14 0 24 -6 24
-14z m205 5 c3 -5 2 -12 -2 -14 -12 -8 -63 4 -63 14 0 12 57 12 65 0z m-867
-18 c2 -9 -7 -13 -30 -13 -26 0 -30 3 -18 11 12 9 11 10 -8 6 -13 -3 -20 -1
-16 4 8 14 67 7 72 -8z m560 -36 c3 -15 -1 -17 -25 -11 -42 10 -49 17 -27 25
28 11 48 6 52 -14z m208 0 c2 -16 -2 -17 -29 -11 -40 8 -45 13 -27 25 22 14
53 6 56 -14z m209 14 c3 -5 0 -13 -5 -16 -15 -9 -60 3 -60 15 0 13 57 13 65 1z
m-1028 -7 c-3 -3 -12 -4 -19 -1 -8 3 -5 6 6 6 11 1 17 -2 13 -5z m1483 -9 c15
-18 7 -31 -32 -51 -29 -15 -32 -15 -43 0 -16 21 -20 20 -54 -5 -16 -12 -35
-19 -42 -17 -13 4 126 87 147 88 6 0 17 -7 24 -15z m-616 -4 c3 -5 -1 -11 -9
-15 -9 -3 -15 0 -15 9 0 16 16 20 24 6z m-794 -18 c0 -13 -36 -18 -64 -7 -30
11 -16 24 24 22 26 -1 40 -6 40 -15z m-114 -26 c1 -15 -2 -29 -7 -32 -5 -3 -6
1 -3 9 7 17 -11 22 -21 6 -7 -12 -55 -14 -55 -2 1 22 43 51 68 48 8 -2 16 -15
18 -29z m163 3 c-12 -34 -63 -80 -87 -80 -9 1 -3 7 14 14 35 15 64 51 64 78 0
10 4 18 9 18 6 0 6 -12 0 -30z m799 21 c31 -19 1 -45 -35 -28 -26 11 -30 23
-10 30 19 8 31 8 45 -2z m-205 -16 c7 -17 -9 -30 -18 -15 -4 6 -10 8 -15 5 -4
-3 -16 -2 -25 1 -13 5 -14 8 -3 15 21 14 55 10 61 -6z m-646 -11 c-3 -3 -12
-4 -19 -1 -8 3 -5 6 6 6 11 1 17 -2 13 -5z m-183 -213 c4 -5 -3 -7 -14 -4 -23
6 -26 13 -6 13 8 0 17 -4 20 -9z"/>
<path d="M1641 1194 c0 -11 3 -14 6 -6 3 7 2 16 -1 19 -3 4 -6 -2 -5 -13z"/>
<path d="M1410 1168 c0 -6 3 -8 7 -5 3 4 11 0 17 -7 14 -18 62 -33 52 -17 -4
6 -16 11 -28 11 -14 0 -18 5 -14 15 4 10 -1 15 -14 15 -11 0 -20 -5 -20 -12z"/>
<path d="M1596 1171 c17 -4 36 -11 42 -15 7 -4 12 -3 12 2 0 13 -26 22 -58 21
-26 -1 -26 -1 4 -8z"/>
<path d="M1483 1163 c15 -2 39 -2 55 0 15 2 2 4 -28 4 -30 0 -43 -2 -27 -4z"/>
<path d="M1512 1135 c-16 -19 -3 -19 22 0 14 11 16 15 5 15 -8 -1 -20 -7 -27
-15z"/>
<path d="M1590 1146 c0 -2 7 -6 15 -10 8 -3 15 -1 15 4 0 6 -7 10 -15 10 -8 0
-15 -2 -15 -4z"/>
<path d="M1646 1125 c4 -8 8 -15 10 -15 2 0 4 7 4 15 0 8 -4 15 -10 15 -5 0
-7 -7 -4 -15z"/>
<path d="M1602 1075 c0 -16 2 -22 5 -12 2 9 2 23 0 30 -3 6 -5 -1 -5 -18z"/>
<path d="M1626 1055 c-3 -9 -6 -24 -5 -33 0 -9 5 -4 10 12 9 32 6 48 -5 21z"/>
<path d="M1601 984 c0 -11 3 -14 6 -6 3 7 2 16 -1 19 -3 4 -6 -2 -5 -13z"/>
<path d="M1945 770 c27 -12 43 -12 25 0 -8 5 -22 9 -30 9 -10 0 -8 -3 5 -9z"/>
<path d="M618 593 c6 -2 18 -2 25 0 6 3 1 5 -13 5 -14 0 -19 -2 -12 -5z"/>
<path d="M628 453 c6 -2 18 -2 25 0 6 3 1 5 -13 5 -14 0 -19 -2 -12 -5z"/>
<path d="M580 431 c-17 -33 -12 -57 15 -69 55 -25 125 -3 125 39 0 22 -8 23
-46 9 -15 -6 -40 -8 -56 -5 -29 7 -38 29 -15 38 9 4 9 6 0 6 -7 1 -17 -8 -23
-18z m70 -42 c24 -1 24 -1 -4 -9 -18 -6 -36 -5 -48 1 -25 13 -23 23 5 15 12
-3 33 -6 47 -7z"/>
<path d="M670 446 c0 -2 9 -6 20 -9 11 -3 18 -1 14 4 -5 9 -34 13 -34 5z"/>
</g>
</svg>
