<?xml version="1.0" standalone="no"?>
<!DOCTYPE svg PUBLIC "-//W3C//DTD SVG 20010904//EN"
 "http://www.w3.org/TR/2001/REC-SVG-20010904/DTD/svg10.dtd">
<svg version="1.0" xmlns="http://www.w3.org/2000/svg"
 width="780.000000pt" height="480.000000pt" viewBox="0 0 474.000000 315.000000"
 preserveAspectRatio="xMidYMid meet">
<metadata>
Created by potrace 1.16, written by Peter Selinger 2001-2019
</metadata>
<g transform="translate(0.000000,315.000000) scale(0.100000,-0.100000)"
fill="#000000" stroke="none">
<path d="M2258 2849 c-53 -24 -63 -43 -74 -145 -5 -54 -3 -67 20 -110 14 -27
26 -54 26 -60 0 -26 -66 -75 -202 -150 l-68 -36 0 -79 c0 -84 -10 -98 -35 -49
-22 42 -74 100 -91 100 -10 0 -14 15 -15 58 -2 81 1 101 18 156 15 46 15 51
-3 84 -46 86 -143 117 -204 65 -53 -44 -110 -186 -110 -273 0 -60 -9 -71 -66
-81 -65 -12 -94 -33 -94 -68 0 -25 -74 -135 -131 -196 -19 -19 -19 -19 -17 46
2 76 -3 88 -59 128 -24 17 -43 38 -43 47 0 19 18 53 38 73 11 12 13 31 8 89
-8 87 -15 108 -52 151 -71 84 -165 70 -222 -34 -24 -44 -23 -187 2 -238 23
-46 16 -57 -64 -97 -43 -22 -60 -37 -70 -62 -18 -46 -88 -143 -146 -203 -41
-44 -48 -56 -52 -100 -5 -61 14 -83 73 -86 44 -3 95 -24 95 -40 0 -5 -7 -26
-15 -46 -19 -45 -20 -40 15 -58 17 -9 30 -24 30 -34 0 -10 3 -21 8 -25 4 -4 7
-69 8 -144 l1 -137 56 -162 c31 -89 63 -176 72 -193 17 -33 23 -63 60 -279 31
-181 33 -286 6 -315 -11 -12 -21 -34 -23 -51 -2 -25 1 -31 20 -33 12 -2 43 8
69 22 25 15 48 25 50 22 2 -2 -7 -21 -22 -41 -36 -54 -33 -75 9 -75 37 0 97
22 113 42 6 7 14 27 18 43 12 56 16 62 25 40 8 -18 9 -17 9 6 1 15 7 44 15 65
10 29 10 43 2 57 -9 14 -8 20 4 27 12 8 14 33 12 145 -4 147 -8 182 -42 320
-27 111 -27 231 1 398 24 150 24 150 -11 222 -25 50 -28 61 -15 68 23 12 18
60 -15 154 -40 113 -29 133 28 50 63 -92 137 -167 166 -167 13 0 29 -6 35 -14
10 -12 8 -19 -8 -35 -12 -12 -21 -25 -21 -30 0 -5 -3 -16 -6 -25 -4 -10 5 -19
30 -30 28 -12 36 -21 36 -40 0 -15 4 -26 8 -26 4 0 16 -24 26 -52 10 -29 43
-99 72 -155 30 -56 65 -136 79 -178 28 -82 27 -109 -10 -245 -18 -66 -19 -170
-3 -256 11 -60 10 -67 -10 -103 l-22 -39 20 -52 c11 -28 20 -62 20 -75 0 -14
4 -25 10 -25 5 0 16 -15 24 -34 17 -42 24 -46 83 -52 71 -7 82 4 60 63 -18 47
-18 48 3 65 12 10 38 22 58 28 21 5 43 14 51 19 21 14 4 46 -38 74 -52 35 -65
75 -58 186 11 152 31 252 56 272 20 16 24 33 32 126 5 60 19 157 30 217 18 93
21 131 16 250 l-6 141 34 -67 c19 -37 46 -75 59 -83 26 -17 24 -9 77 -310 13
-78 24 -198 30 -345 5 -124 14 -259 20 -300 7 -41 13 -117 14 -169 1 -89 2
-95 29 -117 29 -26 80 -32 92 -12 11 17 21 508 14 638 -3 56 18 275 35 378 10
53 28 32 50 -59 11 -46 24 -89 28 -96 14 -22 37 -176 37 -243 0 -36 5 -104 11
-152 8 -65 7 -92 -1 -109 -7 -12 -14 -56 -17 -98 -6 -85 -3 -90 57 -110 20 -6
44 -24 55 -41 30 -46 146 -78 159 -44 11 27 7 33 -55 93 l-61 59 6 64 c3 35
10 128 15 208 5 80 16 204 25 275 9 72 20 222 25 335 5 134 12 213 20 229 7
13 15 68 18 122 l6 99 40 0 40 0 -8 -138 c-6 -119 -4 -141 9 -154 14 -15 30
-202 50 -593 2 -44 20 -158 40 -254 20 -96 36 -184 36 -196 0 -12 -16 -38 -35
-58 -37 -38 -45 -71 -20 -81 19 -7 91 15 135 42 52 32 60 29 60 -23 0 -30 5
-47 14 -51 9 -3 14 -19 13 -40 -1 -19 6 -41 14 -49 13 -13 20 -12 59 7 42 21
47 28 68 93 21 64 22 77 13 155 -6 47 -13 198 -16 337 -4 204 -1 289 15 455
11 111 20 209 20 215 0 7 11 15 25 19 14 3 25 13 25 23 0 25 -27 190 -40 245
-10 44 -8 58 17 138 15 48 30 88 33 88 4 0 12 -28 19 -62 6 -35 23 -101 37
-147 20 -64 23 -90 16 -106 -42 -92 -60 -321 -32 -415 29 -100 32 -139 38
-500 7 -366 8 -376 30 -423 30 -59 100 -132 135 -139 20 -4 32 2 56 28 35 40
49 41 156 13 61 -16 85 -18 102 -10 29 14 20 36 -31 74 -19 15 -44 41 -56 58
-21 29 -22 34 -10 112 6 45 22 118 35 162 37 123 45 200 59 514 8 204 15 293
24 304 9 10 11 28 7 50 -5 23 0 57 15 103 25 83 37 221 22 261 -6 15 -13 51
-15 80 -3 28 -15 82 -26 120 -12 37 -28 93 -36 124 -13 47 -21 59 -46 69 -37
16 -49 37 -50 92 0 24 -8 95 -18 160 -21 141 -43 179 -117 197 -50 13 -77 3
-116 -42 -22 -25 -23 -29 -52 -179 -27 -138 -38 -168 -63 -168 -9 0 -29 -12
-45 -27 -26 -25 -29 -25 -46 -10 -10 9 -37 23 -60 31 -55 20 -132 83 -132 108
0 11 9 31 20 45 17 22 20 41 20 120 0 89 -2 95 -26 118 -15 14 -41 27 -59 31
-59 11 -135 -40 -135 -90 0 -11 -7 -43 -16 -71 l-17 -53 32 -67 c36 -78 37
-87 14 -126 -13 -21 -33 -34 -78 -49 -60 -20 -62 -22 -80 -73 -18 -52 -68
-151 -88 -175 -18 -22 -27 7 -27 88 0 89 -23 258 -38 287 -7 13 -48 35 -108
59 -53 21 -106 45 -117 54 -20 17 -20 18 -3 76 29 94 30 117 6 183 -26 70 -46
96 -84 111 -35 13 -32 13 -88 -11z m-823 -929 c13 -38 13 -52 2 -89 -7 -25
-18 -46 -24 -48 -11 -4 -73 100 -73 123 0 8 14 29 32 49 35 40 38 39 63 -35z
m2221 -907 c9 -48 -3 -372 -15 -404 l-9 -24 -7 30 c-4 17 -9 38 -11 47 -3 9
-9 58 -14 110 -6 51 -13 110 -16 130 -5 27 0 51 19 92 14 31 30 56 36 56 6 0
13 -17 17 -37z"/>
</g>
</svg>
